<?xml version="1.0" standalone="no"?>
<!DOCTYPE svg PUBLIC "-//W3C//DTD SVG 20010904//EN"
 "http://www.w3.org/TR/2001/REC-SVG-20010904/DTD/svg10.dtd">
<svg version="1.0" xmlns="http://www.w3.org/2000/svg"
 width="1920.000000pt" height="1386.000000pt" viewBox="0 0 1920.000000 1386.000000"
 preserveAspectRatio="xMidYMid meet">

<g transform="translate(0.000000,1386.000000) scale(0.100000,-0.100000)"
fill="#000000" stroke="none">
<path d="M9750 13846 c-738 -88 -1376 -538 -1700 -1201 -69 -142 -110 -255
-153 -422 l-32 -121 -85 65 c-385 297 -806 483 -1270 562 -768 131 -1593 -77
-2235 -564 -89 -67 -355 -299 -355 -309 0 -1 34 -24 76 -51 80 -50 83 -51 137
-10 18 13 18 17 3 97 -9 47 -16 87 -16 90 0 11 92 40 99 31 84 -130 95 -143
110 -139 9 2 30 7 46 11 29 5 31 10 49 90 l19 85 52 0 53 0 13 -86 c13 -91 13
-91 81 -107 24 -6 31 0 78 63 29 39 54 70 56 70 2 0 23 -10 47 -21 l44 -22
-23 -86 c-13 -47 -24 -86 -24 -87 0 -1 18 -13 39 -28 l39 -27 77 42 77 42 33
-39 c27 -32 31 -42 21 -54 -7 -8 -32 -39 -56 -68 l-43 -54 21 -43 21 -44 58 5
c32 3 73 7 90 9 31 3 33 1 44 -38 6 -23 13 -45 15 -49 3 -4 -31 -26 -76 -48
l-80 -40 0 -45 c0 -50 7 -56 113 -90 61 -21 64 -26 51 -94 l-6 -31 -69 0 c-91
0 -112 -9 -127 -56 l-12 -39 62 -62 63 -63 -20 -36 c-11 -20 -24 -38 -30 -40
-5 -2 -46 10 -90 26 l-80 30 -32 -34 -32 -34 35 -83 c19 -45 33 -83 32 -84 -2
-1 -20 -14 -41 -30 l-38 -28 -62 61 c-35 34 -68 62 -74 62 -7 0 -28 -8 -48
-17 l-35 -17 0 -87 0 -88 -37 -6 c-21 -4 -44 -7 -51 -8 -8 -1 -27 30 -46 78
l-32 80 -47 3 -46 3 -40 -79 -40 -80 -43 10 c-23 5 -44 11 -47 13 -2 3 -3 44
-2 93 l2 88 -36 17 c-20 9 -40 17 -46 17 -6 0 -40 -25 -75 -56 l-63 -56 -40
32 -40 33 40 79 40 79 -27 34 c-14 19 -31 35 -38 35 -6 0 -46 -11 -89 -24
l-78 -24 -22 45 -22 45 30 26 c17 15 48 41 69 58 l39 30 -15 45 -15 44 -82 12
c-46 6 -85 14 -88 17 -3 3 -8 25 -10 49 l-5 45 55 16 c31 9 70 19 87 22 30 7
33 11 43 77 4 25 -2 31 -74 74 l-77 47 15 40 c9 23 19 44 22 48 3 3 44 0 90
-7 93 -15 96 -14 121 46 10 23 6 33 -35 93 -26 36 -49 66 -53 66 -3 0 -17 -12
-29 -27 -391 -468 -609 -983 -664 -1567 -11 -125 -7 -496 7 -611 l6 -50 -218
3 c-442 7 -798 -60 -1179 -221 -1329 -562 -2044 -2009 -1680 -3403 223 -854
834 -1569 1640 -1922 113 -49 349 -132 378 -132 11 0 35 14 53 31 l32 31 -16
41 c-9 23 -19 47 -24 53 -4 6 -51 14 -104 17 -54 4 -99 9 -101 11 -3 2 -8 29
-12 60 l-8 55 101 34 101 34 3 56 3 55 -88 48 c-48 26 -90 48 -91 50 -2 1 4
28 13 59 l16 57 77 -6 c42 -4 89 -9 104 -12 23 -5 31 0 48 28 38 61 36 69 -31
156 l-62 82 39 42 c21 24 42 42 47 40 5 -1 44 -23 87 -47 44 -25 85 -45 92
-45 7 0 30 15 50 33 l38 32 -26 99 c-14 54 -23 101 -20 103 3 3 27 16 54 28
l49 23 63 -84 c34 -46 66 -84 71 -84 6 0 30 5 55 11 32 8 45 17 49 33 2 11 9
48 15 81 21 115 13 105 79 105 l60 0 22 -97 c12 -54 24 -101 28 -104 3 -4 29
-10 57 -14 l50 -6 59 86 c32 47 64 84 70 81 110 -44 103 -29 75 -161 -10 -49
-18 -90 -17 -91 1 0 22 -14 47 -31 l45 -31 35 24 c28 20 46 49 93 155 l58 131
-58 62 c-32 33 -61 62 -64 64 -4 2 -78 -22 -165 -52 -88 -30 -159 -54 -160
-53 -1 1 -22 38 -48 82 l-47 80 43 40 c24 22 81 74 127 116 l84 76 -29 84 -29
84 -170 15 -170 15 -11 93 c-9 81 -8 94 5 101 9 5 82 29 164 55 129 42 147 50
148 69 0 12 3 52 8 90 l7 67 -135 75 c-75 41 -142 79 -149 83 -12 8 -9 26 13
98 15 49 28 90 28 91 1 0 76 -7 167 -17 91 -9 168 -16 172 -13 4 2 25 37 48
78 l41 74 -102 135 -101 135 21 27 c54 69 104 115 117 110 9 -3 73 -40 144
-81 71 -41 133 -75 137 -75 5 0 34 18 64 41 30 22 61 44 68 49 13 7 9 32 -22
168 -20 88 -37 165 -37 170 0 15 170 87 178 76 48 -72 188 -257 197 -260 6 -3
47 4 90 14 l80 18 34 167 34 167 96 0 96 0 35 -165 c30 -144 37 -166 55 -170
11 -3 50 -11 88 -19 l67 -14 92 132 c50 72 95 135 99 140 7 8 150 -45 172 -64
5 -4 -7 -81 -27 -171 l-35 -164 22 -17 c12 -10 45 -34 73 -54 l52 -36 142 86
c77 47 145 86 149 86 5 0 36 -31 69 -69 l62 -69 -101 -137 -100 -136 35 -62
c60 -106 38 -99 219 -76 87 12 164 19 170 16 7 -2 23 -38 36 -78 13 -41 26
-79 28 -85 2 -6 -63 -50 -145 -97 l-148 -86 9 -83 c5 -46 14 -88 22 -93 7 -6
81 -30 165 -55 l152 -45 -6 -59 c-3 -32 -6 -71 -6 -85 0 -14 -4 -31 -8 -38 -4
-7 -76 -18 -173 -29 l-166 -17 -21 -66 c-11 -36 -23 -75 -26 -87 -5 -17 16
-39 119 -128 69 -59 125 -112 125 -118 0 -17 -83 -158 -93 -158 -5 0 -79 23
-164 50 l-155 50 -46 -52 c-80 -88 -80 -70 -8 -222 35 -74 67 -144 70 -154 5
-15 -8 -30 -64 -71 -39 -28 -75 -51 -80 -51 -6 0 -56 42 -113 93 -56 50 -112
100 -123 110 -20 16 -24 16 -103 -20 l-82 -37 7 -173 c6 -145 5 -173 -7 -173
-8 0 -51 -9 -96 -19 l-82 -19 -68 154 -68 155 -93 -3 -93 -3 -62 -147 c-34
-81 -65 -149 -68 -152 -3 -3 -46 2 -95 12 l-89 18 -5 173 -5 174 -79 34 -80
34 -40 -38 c-23 -21 -77 -73 -122 -115 -60 -58 -86 -76 -101 -72 -13 4 -25 -2
-35 -19 -15 -22 -14 -26 13 -70 16 -26 31 -47 33 -47 12 0 164 21 183 25 18 4
25 -3 43 -51 11 -31 19 -58 18 -59 -2 -1 -42 -25 -90 -54 -82 -49 -88 -54 -87
-84 2 -54 13 -80 39 -88 14 -4 58 -17 98 -29 l72 -21 0 -54 c0 -30 -5 -57 -11
-61 -6 -4 -55 -12 -108 -18 l-96 -11 -17 -54 c-10 -30 -17 -55 -15 -56 1 -1
36 -30 77 -65 41 -34 76 -64 78 -65 6 -5 -48 -105 -56 -105 -4 0 -49 13 -101
30 -52 16 -98 27 -102 24 -4 -2 -21 -22 -38 -43 l-31 -38 46 -94 45 -93 -33
-28 c-56 -47 -62 -46 -144 28 l-75 67 -50 -23 -49 -23 0 -108 0 -108 -57 -12
c-34 -8 -58 -9 -60 -4 -2 6 -21 48 -43 95 l-40 85 -57 0 -57 0 -38 -94 c-21
-52 -39 -96 -41 -98 -2 -1 -29 2 -60 8 l-57 12 0 106 0 106 -53 22 c-33 13
-56 18 -62 12 -15 -15 -13 -503 3 -629 69 -557 282 -1070 623 -1502 104 -131
353 -380 488 -487 820 -650 1893 -864 2855 -569 449 137 854 377 1206 715
l109 104 83 -64 c512 -395 1185 -600 1828 -557 279 19 553 76 796 165 248 91
560 269 774 442 112 90 307 286 399 400 l74 91 90 -111 c50 -62 178 -200 286
-307 262 -261 480 -434 769 -609 867 -524 1879 -712 2892 -536 1479 258 2677
1306 3172 2775 90 268 156 568 195 890 24 203 24 665 -1 875 -93 795 -385
1493 -883 2112 l-123 153 74 112 c272 415 434 866 491 1362 18 162 21 491 5
652 -106 1075 -750 2002 -1725 2484 -440 218 -880 321 -1370 323 -401 1 -738
-61 -1125 -208 l-121 -46 -107 69 c-446 290 -901 447 -1432 493 -198 17 -572
3 -707 -26 -19 -4 -23 2 -38 72 -195 875 -904 1540 -1791 1678 -139 22 -432
27 -574 11z m620 -83 c2 -2 6 -36 8 -75 4 -69 5 -70 40 -85 l35 -14 54 52 53
53 35 -18 c19 -11 35 -23 35 -27 0 -5 -12 -39 -26 -75 l-27 -66 29 -24 c16
-13 33 -23 37 -24 4 0 34 11 67 25 33 14 61 25 64 25 2 0 14 -16 27 -36 l22
-36 -53 -53 -52 -53 13 -36 13 -36 66 0 c36 0 71 -4 78 -8 7 -5 13 -25 15 -46
l2 -38 -67 -25 -68 -25 0 -42 c0 -41 0 -42 66 -74 64 -32 65 -33 59 -65 -4
-17 -11 -36 -15 -40 -4 -5 -40 -7 -79 -5 l-70 3 -17 -37 -17 -37 48 -55 47
-56 -26 -35 -27 -35 -65 36 -64 36 -34 -26 -34 -26 19 -61 c10 -33 19 -67 19
-75 0 -12 -48 -44 -67 -44 -5 0 -28 25 -52 56 -40 51 -45 55 -75 49 -43 -9
-53 -25 -61 -100 l-7 -65 -43 0 c-48 0 -45 -5 -71 103 -7 31 -30 47 -68 47
-19 0 -32 -12 -61 -60 -20 -33 -40 -60 -44 -60 -5 0 -23 5 -41 11 l-32 12 7
65 c4 36 9 70 11 76 4 11 -48 46 -67 46 -6 0 -36 -18 -68 -39 l-58 -40 -27 28
c-14 15 -26 30 -26 34 0 4 16 31 35 60 40 59 42 72 16 106 -18 24 -20 24 -91
12 -40 -6 -74 -10 -76 -8 -2 2 -10 19 -18 38 l-15 36 66 42 c55 35 64 45 59
64 -3 12 -6 29 -6 39 0 12 -19 21 -75 34 l-75 18 0 42 0 43 75 12 c42 6 77 15
79 18 2 3 7 22 10 41 6 33 3 37 -53 79 l-60 44 20 39 c21 42 19 42 119 12 44
-14 45 -13 67 13 13 16 23 32 23 36 0 4 -13 34 -30 67 -16 33 -30 63 -29 67 0
4 13 19 30 31 l29 24 48 -39 c66 -55 66 -55 106 -37 l35 17 -6 77 -6 77 42 10
42 11 34 -69 c36 -70 44 -76 92 -63 21 6 32 27 68 132 3 9 16 11 42 6 21 -4
40 -9 43 -11z m-1259 -955 l14 -82 43 -13 42 -12 48 64 c26 35 52 64 59 65 28
1 83 -34 79 -49 -40 -141 -40 -140 -20 -162 38 -42 49 -42 127 0 l73 40 27
-34 c15 -19 27 -37 27 -40 0 -3 -22 -34 -49 -67 l-50 -61 20 -39 20 -40 86 4
85 3 13 -43 13 -43 -74 -37 -75 -37 3 -45 3 -45 72 -25 c39 -14 75 -28 78 -32
4 -4 4 -28 1 -53 l-7 -45 -72 0 c-40 0 -77 -4 -83 -8 -7 -4 -19 -24 -27 -44
l-15 -37 59 -56 c63 -60 65 -69 30 -114 l-18 -24 -77 28 -77 28 -31 -31 -31
-31 31 -75 c18 -42 32 -77 32 -79 0 -3 -17 -16 -39 -30 l-38 -25 -58 58 -58
58 -43 -16 -44 -16 0 -83 c0 -90 1 -87 -60 -97 l-35 -6 -30 78 -31 77 -45 3
-46 3 -33 -76 c-18 -41 -38 -75 -44 -75 -6 0 -28 5 -50 11 l-38 11 7 82 6 82
-40 19 c-45 20 -42 21 -125 -49 l-46 -38 -35 26 c-19 15 -35 29 -35 32 0 2 16
36 35 75 l36 70 -27 34 c-14 19 -29 35 -33 35 -3 0 -40 -11 -82 -24 l-75 -23
-23 39 c-26 45 -26 45 53 108 l54 43 -12 41 c-13 44 -17 46 -138 61 l-48 6 0
48 0 47 68 18 c88 23 93 26 99 73 l5 41 -71 42 c-76 45 -75 42 -50 108 9 23
12 24 72 16 104 -13 106 -12 128 27 l21 35 -47 68 -48 68 34 34 34 34 69 -44
70 -44 37 25 36 24 -13 72 c-19 96 -20 93 28 112 34 13 43 14 49 3 4 -7 25
-38 47 -68 30 -44 44 -54 63 -53 62 7 63 8 82 93 l18 80 48 0 48 0 14 -82z
m-2907 -308 l38 -100 57 0 57 0 44 91 c25 50 48 93 53 96 4 2 33 -1 63 -8 l56
-13 -7 -107 -7 -108 52 -26 c59 -30 46 -35 152 58 l68 59 45 -37 c25 -21 45
-41 45 -46 0 -5 -20 -50 -45 -100 l-46 -90 37 -44 c20 -25 37 -45 38 -45 0 0
44 14 96 30 52 16 100 30 105 30 12 0 67 -98 61 -108 -3 -4 -40 -37 -84 -72
l-80 -64 15 -50 c8 -28 17 -54 19 -57 2 -3 50 -12 107 -18 l105 -13 6 -36 c14
-89 17 -86 -99 -117 -58 -15 -105 -33 -106 -39 0 -6 -4 -32 -8 -58 l-8 -47 76
-45 c123 -73 116 -62 90 -128 -20 -52 -24 -57 -48 -52 -64 11 -158 24 -173 24
-11 0 -30 -20 -47 -47 l-29 -47 39 -58 c22 -32 43 -58 47 -58 3 0 27 21 53 46
l47 47 99 -61 c54 -33 106 -64 115 -67 15 -6 34 4 119 65 4 3 -3 57 -16 120
-13 63 -24 122 -25 131 0 11 22 26 61 43 33 14 64 26 68 26 4 0 39 -46 77
-102 38 -56 71 -105 74 -109 5 -8 118 13 138 25 7 4 12 14 12 21 0 8 12 64 26
125 l26 110 73 0 74 0 10 -55 c6 -30 16 -81 21 -112 6 -32 13 -68 15 -79 4
-17 19 -25 71 -38 37 -9 68 -16 69 -14 2 2 37 49 79 106 42 56 81 102 86 102
6 0 38 -14 71 -30 45 -23 59 -35 55 -48 -3 -9 -17 -65 -32 -125 -30 -122 -31
-119 46 -172 l39 -27 111 62 c61 34 117 59 124 57 7 -3 31 -27 53 -54 l41 -49
-79 -103 c-43 -57 -79 -107 -79 -110 0 -4 14 -34 31 -65 l32 -58 51 5 c28 4
88 9 133 13 l81 7 22 -69 c25 -81 34 -68 -111 -144 l-99 -53 0 -42 c0 -99 -2
-97 136 -145 l125 -43 -6 -56 c-4 -31 -9 -63 -11 -72 -5 -18 -51 -29 -124 -29
-25 0 -68 -3 -96 -6 l-51 -6 -21 -67 -22 -66 32 -29 c18 -16 62 -56 97 -89
l64 -59 -23 -43 c-13 -24 -31 -53 -40 -65 l-16 -21 -126 45 -125 45 -46 -54
-46 -53 49 -115 c28 -63 50 -119 50 -124 -1 -9 -104 -83 -116 -83 -4 0 -49 41
-100 90 l-94 90 -37 -16 c-21 -9 -50 -20 -65 -26 l-28 -10 0 -133 c0 -149 6
-137 -77 -150 l-43 -7 0 -178 0 -178 97 -41 97 -41 30 28 c17 15 81 75 144
135 62 59 118 107 124 107 14 0 169 -110 174 -124 2 -6 -29 -89 -71 -184 -41
-95 -75 -178 -75 -185 1 -7 32 -45 70 -84 l68 -73 183 65 c100 36 187 65 193
65 11 0 116 -170 116 -187 0 -5 -65 -69 -145 -142 -80 -72 -145 -135 -145
-139 0 -4 15 -50 34 -102 l34 -95 195 -15 c108 -8 198 -18 201 -21 10 -9 35
-213 27 -220 -3 -4 -90 -34 -193 -68 l-186 -62 -8 -102 c-4 -56 -7 -104 -6
-106 0 -3 78 -47 174 -99 95 -52 174 -95 175 -96 4 -4 -59 -201 -67 -209 -6
-7 -238 11 -362 28 l-37 5 -52 -92 c-59 -106 -65 -81 55 -236 45 -59 95 -124
110 -145 l29 -37 -63 -73 c-35 -39 -69 -78 -75 -85 -9 -10 -48 8 -188 88
l-177 101 -79 -61 c-44 -33 -82 -63 -84 -68 -2 -4 15 -88 39 -187 24 -99 44
-187 44 -195 0 -9 -35 -31 -94 -57 -51 -24 -98 -43 -103 -43 -5 0 -62 72 -127
161 -65 88 -123 158 -130 156 -6 -2 -48 -12 -92 -22 -45 -10 -86 -20 -92 -24
-9 -5 -82 -357 -82 -392 0 -5 -51 -9 -114 -9 l-114 0 -21 93 c-12 50 -31 139
-44 197 l-22 105 -75 17 c-140 31 -124 40 -247 -138 -59 -86 -112 -158 -119
-161 -14 -5 -197 71 -201 84 -2 6 14 95 36 199 22 104 38 191 36 194 -2 4 -41
32 -87 64 l-84 57 -171 -105 -172 -105 -73 75 c-40 42 -75 80 -76 85 -3 7 85
137 211 310 l18 26 -47 79 c-26 43 -52 84 -58 90 -8 9 -47 7 -151 -8 -77 -10
-166 -20 -199 -21 l-58 -2 -34 95 c-18 52 -32 100 -30 106 2 6 79 55 171 109
l168 98 -7 79 c-12 146 9 127 -208 191 -105 31 -192 58 -193 59 -3 3 15 222
18 224 1 1 90 12 197 24 107 12 198 24 201 26 6 3 53 147 61 185 2 10 -52 62
-147 144 -82 71 -151 129 -153 131 -2 1 22 47 53 102 l56 100 137 -44 c75 -24
162 -52 193 -60 l57 -17 34 39 c78 87 98 112 98 122 0 5 -38 89 -84 186 l-85
176 86 65 c47 36 90 65 96 65 5 0 68 -53 141 -117 72 -64 139 -123 148 -131
15 -12 27 -9 103 27 48 23 91 41 96 41 6 0 9 82 7 206 l-3 206 100 25 c54 13
104 22 110 19 6 -2 46 -84 90 -181 44 -98 86 -180 93 -183 8 -2 57 -1 110 4
l95 9 73 175 c40 96 75 179 76 183 2 4 39 1 82 -8 44 -8 81 -14 82 -12 1 1
-14 41 -33 90 l-35 87 -72 0 -71 0 -54 -120 c-30 -66 -56 -120 -58 -120 -2 0
-36 7 -75 16 l-70 16 3 136 4 135 -62 28 -63 28 -97 -85 c-53 -47 -102 -83
-110 -80 -7 3 -34 22 -62 42 l-49 37 24 53 c13 30 39 84 58 122 l34 67 -47 54
-47 53 -127 -40 -126 -40 -36 65 c-19 35 -35 65 -35 67 0 2 45 41 100 86 55
46 100 87 100 90 0 14 -32 116 -39 123 -4 4 -64 15 -132 24 -68 8 -126 17
-129 20 -3 2 -7 36 -10 74 l-5 70 80 24 c44 13 101 30 127 36 50 14 46 7 63
114 l6 40 -116 69 c-63 37 -115 70 -115 72 0 10 44 120 50 128 5 4 64 1 135
-9 143 -19 129 -24 176 61 l23 43 -49 71 c-27 39 -53 74 -58 77 -5 3 -26 -12
-47 -32 l-38 -38 -92 58 c-99 63 -100 63 -163 12 l-26 -22 20 -104 c11 -57 19
-104 17 -105 -23 -17 -112 -45 -117 -38 -3 5 -30 46 -60 91 l-54 82 -41 -6
c-75 -12 -73 -9 -98 -118 l-23 -102 -61 -3 c-71 -3 -64 -13 -85 126 -14 92
-20 99 -91 107 l-43 6 -64 -85 -63 -85 -52 26 c-28 14 -52 27 -54 28 -2 1 9
49 23 106 l27 104 -44 37 -43 37 -92 -50 c-50 -27 -96 -49 -101 -49 -5 0 -26
20 -46 44 l-36 44 65 81 c36 44 65 85 65 90 0 6 -10 31 -22 56 l-23 46 -75 -6
c-41 -3 -91 -8 -111 -11 l-37 -5 -13 53 c-8 29 -14 57 -14 62 0 4 41 30 90 56
l90 49 3 52 c2 28 -1 56 -6 61 -5 5 -51 24 -103 42 l-94 34 3 54 c2 29 7 57
11 61 5 5 55 11 112 15 l104 7 19 54 20 55 -79 73 -79 74 17 32 c10 18 25 42
35 54 l17 21 100 -39 100 -39 37 37 c21 20 38 43 38 49 0 7 -9 34 -21 61 -11
26 -29 69 -39 95 l-19 46 50 33 50 32 57 -55 c31 -30 68 -64 81 -76 l23 -21
52 23 51 22 5 110 5 109 30 6 c87 19 87 19 129 -91z m5207 74 l37 -6 6 -88 7
-87 40 -13 40 -13 59 58 c64 63 65 63 124 20 18 -14 18 -17 -13 -92 l-31 -77
32 -33 33 -32 78 31 c86 34 83 35 119 -31 12 -22 9 -27 -50 -80 l-62 -56 16
-42 16 -41 88 -7 88 -7 4 -41 c3 -23 3 -45 2 -48 -2 -3 -37 -18 -79 -34 -69
-25 -75 -29 -75 -55 0 -16 -3 -35 -6 -44 -4 -11 15 -25 74 -55 l80 -40 -13
-43 -13 -43 -86 3 -86 2 -20 -40 -21 -41 55 -66 55 -66 -31 -37 -30 -38 -74
40 -74 40 -35 -27 c-19 -14 -35 -29 -35 -33 0 -4 9 -40 20 -80 11 -39 20 -74
20 -77 0 -10 -83 -46 -89 -38 -13 15 -95 118 -97 121 -1 2 -22 -2 -46 -8 l-45
-12 -12 -80 c-6 -45 -12 -82 -13 -84 -2 -1 -23 -4 -48 -5 -50 -4 -48 -6 -80
117 -7 30 -17 43 -33 48 -55 14 -66 8 -113 -64 l-45 -70 -42 17 c-23 9 -43 17
-44 18 -2 1 4 39 12 85 14 77 13 84 -3 96 -51 38 -55 38 -131 -11 l-73 -47
-29 28 c-16 15 -29 33 -29 39 0 6 19 41 43 77 l43 66 -20 37 c-21 36 -22 36
-71 31 -27 -3 -67 -9 -87 -12 -35 -6 -37 -5 -52 31 -9 21 -16 41 -16 45 0 5
31 28 70 52 l70 43 -6 40 c-8 51 -8 51 -41 60 -117 28 -133 36 -133 63 0 48
11 72 33 72 11 0 48 5 83 11 62 11 62 11 73 52 11 41 10 42 -26 72 -21 17 -51
41 -67 56 l-28 25 21 41 21 42 67 -19 c38 -10 75 -21 83 -24 9 -3 25 8 42 30
l27 36 -39 77 c-30 60 -35 79 -26 87 7 5 25 17 39 28 l27 18 61 -51 c33 -28
65 -51 70 -51 4 0 24 8 43 17 l36 16 -7 87 -6 87 29 7 c16 4 37 9 46 12 14 4
26 -12 55 -70 l37 -76 46 0 46 0 29 80 c16 44 34 80 40 80 5 0 26 -3 46 -6z
m1949 -915 c13 -55 27 -102 30 -104 3 -2 29 -7 57 -11 l51 -6 58 86 c63 95 60
93 136 62 l35 -15 -19 -107 c-22 -118 -24 -111 48 -150 l30 -17 89 57 88 57
43 -42 43 -42 -61 -90 c-66 -97 -66 -99 -15 -160 l22 -26 90 15 c49 8 96 13
103 12 16 -3 55 -95 47 -108 -3 -5 -44 -32 -91 -61 l-86 -51 7 -52 c4 -28 9
-54 11 -57 2 -4 25 -12 51 -18 27 -7 72 -19 101 -27 l52 -15 0 -60 c0 -67 11
-61 -132 -79 l-87 -12 -15 -51 -16 -52 28 -25 c15 -14 52 -46 82 -71 l55 -46
-24 -52 c-14 -28 -29 -51 -35 -51 -5 0 -46 11 -90 24 -45 14 -88 26 -97 28 -9
2 -32 -15 -52 -40 l-36 -43 47 -95 47 -96 -40 -34 c-22 -18 -44 -34 -50 -34
-5 0 -45 30 -88 66 l-79 67 -50 -24 -50 -23 3 -110 4 -110 -50 -13 c-27 -7
-53 -13 -58 -13 -4 0 -28 43 -54 95 l-48 95 -56 0 -56 0 -38 -101 -38 -100
-51 6 c-28 4 -55 11 -61 16 -5 5 -11 56 -13 113 l-4 103 -54 19 -54 18 -73
-72 c-40 -40 -76 -72 -81 -72 -4 0 -27 14 -51 31 l-43 31 41 100 40 100 -40
39 -40 40 -94 -35 c-52 -20 -97 -36 -102 -36 -4 0 -21 21 -37 47 l-30 47 76
77 76 77 -16 50 c-15 45 -20 50 -54 56 -20 3 -69 6 -109 6 l-72 0 -6 48 c-4
26 -7 54 -8 62 -1 10 30 26 98 51 l100 37 0 57 0 58 -90 48 c-49 27 -90 52
-89 56 1 5 7 30 14 56 l13 49 109 -4 109 -3 26 47 26 47 -58 73 c-32 40 -62
78 -68 85 -6 8 3 27 29 57 l38 46 92 -50 c51 -28 96 -50 101 -50 4 1 26 16 47
35 l39 35 -26 102 c-15 55 -26 102 -25 103 2 2 26 14 54 28 l52 26 58 -76 c33
-42 62 -80 65 -85 3 -5 29 -3 58 4 62 14 63 17 81 141 l12 87 62 0 62 0 24
-101z m2370 -153 c14 -48 32 -91 40 -96 8 -5 33 -10 55 -10 39 0 41 2 83 75
24 41 48 78 54 81 5 3 30 -2 55 -11 l45 -17 -8 -67 c-15 -124 -14 -130 31
-157 l41 -24 78 56 78 55 38 -33 c21 -18 39 -36 39 -41 1 -4 -22 -43 -49 -88
l-51 -80 28 -39 c31 -44 39 -46 133 -25 87 19 87 19 103 -12 34 -67 34 -68
-50 -124 -43 -29 -79 -53 -81 -54 -1 -1 2 -25 8 -52 l11 -51 95 -22 94 -21 0
-55 c0 -30 -1 -54 -2 -55 -2 0 -45 -8 -97 -17 -86 -16 -95 -20 -101 -42 -22
-81 -26 -72 60 -135 l79 -58 -25 -48 c-13 -27 -28 -49 -32 -49 -4 0 -41 9 -82
20 -41 11 -82 20 -91 20 -9 0 -28 -17 -43 -39 l-27 -39 46 -83 46 -84 -40 -38
-41 -38 -68 54 c-91 72 -86 71 -133 45 l-41 -23 7 -100 6 -101 -51 -13 c-28
-7 -52 -12 -54 -10 -2 2 -22 40 -46 84 -24 44 -44 82 -46 84 -1 1 -25 0 -53
-4 l-50 -7 -29 -86 -29 -87 -52 1 c-29 1 -54 3 -56 5 -2 2 -7 47 -12 99 l-8
94 -45 17 -45 17 -71 -70 -71 -70 -45 29 -45 28 33 90 34 90 -38 37 -37 37
-89 -38 -90 -39 -28 39 c-15 21 -28 42 -28 47 0 4 29 39 64 78 l64 70 -20 47
-21 47 -97 0 -97 0 -10 55 -9 54 93 37 93 37 0 48 0 49 -87 43 c-49 23 -89 42
-91 43 -1 1 3 24 10 53 l11 51 102 0 102 0 18 45 17 46 -39 46 c-21 25 -48 59
-61 74 l-24 29 32 40 c17 22 33 40 36 40 2 0 43 -18 90 -40 l87 -40 37 34 37
33 -27 89 c-15 49 -26 92 -23 97 2 4 23 17 46 28 l41 21 35 -38 c20 -22 49
-54 64 -73 l29 -35 46 13 c26 7 48 14 50 15 2 2 8 47 14 99 l12 96 45 4 c25 2
50 3 56 2 5 -1 21 -41 35 -89z m-5159 -803 l55 -128 75 -3 76 -3 53 123 c30
68 57 127 61 132 7 8 77 -2 142 -20 15 -5 17 -21 17 -149 l0 -143 66 -31 67
-31 96 88 c53 49 102 92 108 96 13 7 133 -71 133 -87 0 -6 -25 -65 -56 -133
l-57 -123 31 -38 c65 -82 55 -80 194 -34 68 23 130 41 138 41 8 0 31 -30 52
-68 l36 -67 -108 -94 -108 -93 24 -73 25 -72 140 -13 c80 -8 142 -18 144 -24
2 -6 6 -43 10 -82 l6 -70 -128 -38 c-70 -21 -133 -43 -140 -50 -6 -6 -13 -42
-15 -79 l-3 -68 117 -68 c65 -37 120 -69 123 -72 6 -6 -33 -129 -46 -143 -7
-8 -156 4 -254 20 -28 5 -32 1 -68 -61 l-38 -66 81 -110 c44 -60 81 -113 83
-117 1 -5 -22 -34 -50 -66 l-53 -57 -119 70 c-65 39 -122 71 -126 71 -4 0 -33
-19 -66 -42 -40 -27 -58 -46 -55 -57 14 -48 58 -263 55 -265 -2 -2 -36 -17
-74 -34 l-71 -29 -82 117 -83 117 -73 -15 -73 -16 -30 -140 -29 -141 -80 0
-79 0 -29 141 -29 142 -59 12 c-33 6 -66 14 -73 16 -8 3 -45 -39 -96 -110 -45
-64 -86 -116 -90 -116 -21 0 -139 61 -139 72 0 7 13 69 30 138 l29 125 -36 31
c-82 71 -74 71 -207 -7 -65 -38 -121 -69 -125 -69 -5 0 -31 26 -59 58 l-50 58
84 112 c46 61 84 114 84 118 0 3 -16 34 -35 68 l-35 62 -107 -12 c-60 -7 -125
-13 -145 -14 l-37 0 -22 72 c-26 84 -37 70 118 156 l103 57 0 40 c0 22 -3 57
-6 77 l-7 38 -134 42 -135 42 7 75 c4 42 9 79 11 82 2 3 43 9 91 13 49 4 111
10 140 13 l52 6 21 60 c11 34 20 68 19 76 0 9 -47 57 -103 106 l-103 90 26 46
c14 25 33 56 42 69 l15 23 136 -45 135 -46 50 56 50 57 -59 129 -59 130 23 18
c13 10 42 31 65 48 l42 31 78 -73 c43 -40 90 -83 105 -96 l27 -25 70 29 70 29
3 145 3 145 50 11 c102 24 95 29 156 -113z m7086 83 c2 -2 6 -30 9 -64 6 -58
8 -61 36 -68 26 -5 36 0 73 36 42 41 45 42 74 30 17 -7 31 -13 31 -15 0 -1 -9
-28 -20 -61 l-20 -58 23 -23 23 -24 58 26 57 25 19 -22 c27 -32 25 -37 -20
-83 -38 -39 -40 -43 -29 -73 11 -31 12 -32 74 -32 66 0 75 -6 75 -51 0 -14
-16 -26 -55 -44 -51 -22 -55 -26 -55 -58 0 -31 4 -35 55 -56 55 -23 64 -36 49
-75 -5 -12 -21 -16 -69 -16 -60 0 -63 -1 -75 -30 -12 -29 -10 -33 29 -80 42
-50 42 -50 24 -75 -10 -13 -21 -25 -25 -25 -3 0 -30 11 -59 25 l-54 25 -24
-24 c-23 -24 -23 -25 -7 -72 22 -64 21 -71 -13 -89 -29 -14 -30 -14 -68 31
-35 42 -42 46 -70 40 -34 -8 -43 -26 -43 -93 0 -34 -4 -43 -17 -43 -10 0 -27
-3 -39 -6 -18 -5 -23 2 -38 54 -9 33 -23 63 -32 66 -37 14 -53 5 -84 -49 -17
-30 -33 -55 -34 -55 -2 0 -17 5 -34 11 -30 10 -31 12 -26 57 3 26 7 54 8 63 2
9 -9 23 -26 33 -28 17 -29 17 -79 -20 l-51 -37 -25 26 -26 25 31 54 31 53 -20
27 c-17 23 -23 25 -52 18 -87 -22 -85 -22 -102 9 -8 17 -15 32 -15 34 0 2 22
19 50 38 27 19 50 41 49 49 -2 41 -17 55 -70 65 -53 10 -54 11 -57 47 l-3 37
60 12 c55 10 60 14 67 42 7 32 5 35 -68 92 -25 19 -25 22 -12 52 l13 31 53
-14 c70 -18 73 -18 92 12 17 24 16 27 -14 81 l-32 56 23 18 c32 25 37 24 88
-15 43 -32 45 -33 73 -17 27 16 28 18 22 78 -7 61 -6 63 20 73 40 15 39 15 71
-45 31 -57 38 -61 77 -46 17 6 29 24 42 66 17 56 18 56 49 49 18 -3 33 -7 34
-8z m-13304 -494 l60 -133 80 3 81 3 55 133 c61 147 52 140 156 119 l60 -13 3
-150 3 -150 73 -31 74 -31 105 99 c58 54 109 99 114 99 7 0 95 -57 132 -86 2
-2 -21 -61 -52 -131 -31 -71 -57 -133 -59 -139 -2 -6 21 -36 50 -67 l52 -56
140 49 140 50 23 -38 c13 -20 33 -53 44 -72 l21 -35 -109 -98 c-60 -55 -109
-102 -109 -106 0 -4 11 -38 23 -76 l24 -70 148 -12 c81 -7 149 -14 150 -15 2
-2 6 -40 10 -84 l7 -82 -139 -46 -140 -47 -7 -52 c-13 -108 -19 -98 117 -172
67 -37 125 -70 129 -74 7 -6 -32 -144 -44 -156 -2 -3 -70 1 -149 9 -79 8 -147
12 -150 8 -3 -4 -21 -35 -40 -69 l-33 -62 91 -119 91 -118 -57 -63 -56 -63
-123 71 c-68 39 -129 71 -135 71 -7 0 -38 -21 -70 -46 -41 -32 -56 -50 -53
-62 3 -9 17 -66 31 -127 15 -60 29 -118 31 -127 4 -14 -11 -25 -72 -53 -42
-19 -78 -34 -79 -33 -46 71 -178 238 -187 237 -7 -1 -42 -8 -77 -17 l-65 -17
-23 -125 c-12 -69 -25 -135 -28 -147 -5 -22 -11 -23 -89 -23 l-83 0 -29 136
c-16 74 -32 140 -35 146 -5 8 -113 37 -145 38 -6 0 -47 -54 -93 -120 -45 -66
-86 -120 -91 -120 -7 0 -141 58 -147 63 -1 2 11 65 28 141 16 77 29 142 29
146 0 9 -115 90 -127 90 -5 0 -65 -34 -133 -75 l-124 -76 -53 58 c-28 32 -52
63 -52 68 0 6 37 62 83 125 l84 115 -26 48 c-54 96 -41 90 -182 72 -69 -8
-135 -17 -147 -20 -19 -4 -24 4 -48 76 -15 44 -25 82 -24 83 2 2 60 36 128 76
l123 73 -6 76 c-4 41 -11 78 -16 81 -5 3 -70 23 -145 45 l-136 39 7 81 c4 44
8 82 10 84 2 2 69 11 150 20 l146 16 24 75 c18 58 21 77 11 86 -7 6 -58 50
-114 98 l-102 87 31 57 c55 99 35 95 195 44 l143 -45 42 48 c24 26 46 54 50
60 5 8 -17 66 -52 140 -33 70 -60 131 -60 135 0 10 114 100 127 100 4 0 55
-43 113 -95 58 -52 108 -94 112 -95 3 0 35 13 70 30 l63 30 5 152 5 151 70 17
c39 10 74 17 79 16 5 -1 36 -62 69 -134z m12702 -720 l50 -7 17 -174 c10 -96
21 -178 25 -182 5 -4 45 -18 91 -32 l82 -25 107 122 c59 66 112 127 119 134 9
12 26 6 95 -34 46 -26 86 -49 88 -50 1 -2 -22 -79 -54 -173 l-56 -170 38 -34
c60 -54 100 -87 107 -87 3 0 74 32 157 70 84 39 156 70 160 70 13 0 121 -148
117 -159 -1 -5 -52 -64 -113 -131 -60 -67 -112 -127 -114 -132 -1 -5 13 -46
33 -91 l37 -82 179 3 179 4 9 -38 c24 -93 34 -144 30 -155 -2 -6 -73 -41 -158
-78 l-155 -68 0 -99 0 -98 161 -69 161 -69 -20 -99 -20 -99 -181 0 -182 0 -37
-86 -37 -86 120 -128 c66 -70 120 -131 120 -135 0 -3 -25 -42 -56 -85 l-56
-78 -42 18 c-22 10 -97 43 -165 74 l-124 56 -56 -51 c-31 -29 -62 -57 -68 -64
-10 -8 -1 -46 42 -175 30 -91 53 -170 51 -176 -2 -6 -31 -26 -63 -44 -32 -18
-68 -39 -79 -47 -20 -13 -28 -6 -142 121 l-122 135 -90 -31 c-65 -21 -90 -34
-90 -46 0 -25 -30 -336 -33 -338 -6 -6 -191 -24 -195 -19 -4 3 -30 79 -58 167
-38 119 -57 163 -70 168 -11 4 -53 10 -95 14 l-77 7 -87 -157 c-66 -117 -92
-155 -104 -151 -9 2 -51 15 -93 28 -91 28 -86 12 -63 209 22 189 27 171 -65
224 l-80 47 -140 -106 c-76 -58 -143 -105 -148 -105 -4 0 -39 29 -77 64 l-70
64 21 39 c11 21 51 91 88 155 l68 117 -53 73 c-29 40 -54 74 -55 76 -1 1 -75
-14 -165 -34 -90 -20 -170 -37 -177 -38 -15 -1 -97 174 -85 184 4 4 67 49 138
100 72 52 133 96 138 100 6 5 -30 190 -37 190 -5 0 -299 59 -323 65 -22 5 -23
10 -23 104 0 70 4 100 13 103 6 3 85 20 173 38 l162 34 17 85 c10 47 18 89 19
93 0 3 -65 53 -145 110 l-146 103 40 92 c34 81 42 92 61 88 11 -2 83 -18 159
-35 76 -16 147 -30 157 -30 24 0 124 136 115 157 -3 9 -35 66 -72 127 -36 61
-74 125 -84 142 l-19 31 75 67 75 67 145 -106 145 -105 80 46 c50 28 80 52 80
62 0 10 -9 89 -20 176 -11 87 -18 162 -15 165 5 9 184 66 189 60 2 -2 43 -73
91 -157 82 -145 89 -153 114 -148 14 3 56 8 92 12 l66 6 21 66 c11 37 35 113
53 170 l32 102 51 -1 c28 0 73 -4 101 -7z m-2409 -65 c14 -56 11 -52 45 -61
24 -5 31 0 59 43 30 47 32 49 60 39 29 -10 30 -12 27 -70 -2 -51 1 -62 19 -74
19 -13 25 -11 64 17 45 33 61 32 83 -3 7 -11 2 -27 -21 -60 l-32 -46 20 -25
c18 -23 23 -24 71 -15 54 10 63 7 74 -29 5 -19 -1 -27 -39 -50 -39 -24 -46
-33 -46 -60 0 -30 2 -32 56 -44 61 -14 70 -23 55 -61 -8 -21 -18 -26 -56 -31
-77 -8 -88 -55 -25 -101 43 -32 47 -42 27 -70 -13 -17 -18 -18 -66 -6 -50 12
-54 11 -74 -9 l-22 -22 28 -49 c15 -28 27 -52 27 -55 0 -2 -11 -12 -25 -21
-25 -16 -27 -16 -67 16 -34 28 -45 32 -67 24 -24 -9 -26 -14 -27 -69 -1 -48
-5 -60 -20 -66 -34 -14 -42 -9 -67 39 -20 38 -30 48 -55 50 -28 3 -31 0 -47
-47 -19 -58 -27 -65 -59 -57 -20 5 -24 14 -30 65 -6 53 -9 60 -33 66 -21 5
-33 -1 -67 -34 l-41 -40 -27 20 -27 20 21 50 21 50 -21 22 c-22 22 -22 22 -74
3 l-52 -18 -18 23 c-19 22 -19 23 22 64 38 39 40 43 29 73 -11 31 -13 32 -69
32 -57 0 -58 1 -62 31 -5 33 0 38 65 58 33 11 37 16 37 45 0 29 -5 35 -50 56
-45 21 -49 26 -43 49 9 41 11 41 68 35 51 -6 54 -5 68 22 15 28 14 31 -19 71
-39 48 -41 54 -15 77 18 16 21 16 68 -7 48 -25 49 -25 73 -7 24 18 24 18 8 74
l-16 57 28 14 c28 14 29 14 67 -30 32 -37 42 -43 65 -38 22 4 29 12 33 42 14
83 13 82 47 79 29 -3 33 -8 44 -51z m-1582 -66 l28 -71 40 0 c39 0 40 1 70 68
16 37 31 68 33 70 2 2 22 -2 45 -8 l41 -11 -2 -76 -2 -76 35 -18 35 -18 56 50
c59 53 62 53 110 15 18 -14 17 -17 -12 -81 -17 -36 -31 -69 -31 -73 0 -4 10
-19 23 -35 l22 -27 65 20 c36 11 70 20 76 20 6 0 18 -17 28 -37 17 -36 17 -38
-1 -53 -101 -82 -96 -75 -86 -117 8 -37 10 -38 63 -46 100 -15 97 -14 103 -54
2 -21 3 -41 1 -44 -2 -4 -35 -14 -73 -24 -55 -13 -70 -21 -75 -38 -14 -51 -7
-65 47 -96 83 -49 79 -42 61 -87 l-16 -41 -75 12 -75 12 -19 -31 c-10 -17 -19
-35 -19 -39 0 -4 19 -35 42 -68 l42 -59 -30 -31 -31 -30 -66 41 -66 42 -32
-23 c-28 -20 -31 -25 -25 -60 20 -128 22 -114 -20 -131 l-39 -16 -43 65 c-42
63 -43 64 -80 57 -20 -4 -40 -11 -43 -16 -3 -4 -11 -38 -18 -73 l-13 -65 -43
0 c-48 0 -49 1 -60 82 -9 58 -21 74 -61 83 -29 5 -34 2 -74 -52 -24 -32 -44
-59 -46 -61 -1 -2 -18 4 -38 12 -41 17 -42 24 -20 109 l16 62 -29 22 c-15 13
-32 23 -36 23 -5 0 -37 -16 -71 -35 l-63 -35 -20 23 c-35 39 -35 45 13 106
l46 60 -19 33 -19 33 -76 -3 -76 -4 -12 37 c-7 20 -9 39 -5 43 3 4 32 20 63
37 54 28 57 32 60 71 l3 42 -75 27 c-74 27 -75 28 -70 59 10 56 10 56 73 56
77 0 88 5 102 47 11 35 10 36 -42 89 l-53 53 19 36 c11 19 22 35 25 35 2 0 36
-12 73 -26 l69 -27 29 29 28 29 -30 70 -30 70 28 22 c16 13 32 23 38 23 5 0
33 -23 61 -51 l52 -52 39 15 38 16 5 78 5 79 35 6 c19 3 38 4 41 3 3 -2 18
-35 33 -73z m-11364 -793 c19 -66 41 -127 48 -135 7 -7 28 -13 46 -13 19 0 47
-3 62 -6 28 -5 32 -2 99 115 77 133 64 126 163 89 59 -22 57 -14 37 -153 -21
-147 -23 -138 46 -179 l61 -36 110 80 111 79 59 -51 58 -50 -22 -37 c-12 -20
-43 -71 -70 -114 -26 -43 -48 -83 -48 -88 0 -5 17 -33 37 -61 20 -29 37 -54
38 -56 1 -1 57 9 125 23 67 14 129 25 137 25 7 0 23 -21 34 -47 43 -99 50 -83
-76 -170 -77 -52 -113 -83 -111 -93 3 -8 10 -40 16 -71 l11 -56 132 -29 132
-29 3 -77 c2 -66 0 -77 -15 -81 -10 -3 -72 -15 -139 -27 l-121 -22 -15 -70
-15 -70 108 -81 c60 -44 109 -84 109 -88 0 -4 -14 -36 -30 -71 l-30 -65 -135
32 -135 32 -40 -53 c-22 -29 -40 -59 -40 -66 1 -7 29 -62 64 -123 71 -122 71
-112 -5 -176 l-48 -40 -103 80 c-57 45 -109 81 -117 81 -7 0 -38 -14 -69 -31
l-55 -32 7 -68 c3 -38 9 -100 12 -138 l7 -69 -68 -21 c-37 -12 -71 -21 -75
-21 -5 0 -36 52 -69 114 -34 63 -65 117 -69 120 -4 3 -39 2 -77 -2 l-68 -7
-44 -131 -43 -130 -73 9 c-39 5 -74 11 -77 13 -2 3 -8 65 -14 139 l-9 135 -69
22 -70 22 -93 -99 -93 -100 -45 24 c-25 14 -55 32 -66 40 l-21 16 45 128 c25
70 45 129 45 131 0 2 -24 24 -54 50 l-54 46 -114 -49 c-62 -27 -119 -51 -126
-53 -7 -2 -32 24 -56 57 l-43 60 95 102 94 103 -27 65 -28 65 -138 0 -138 0
-11 58 c-6 31 -14 67 -17 78 -4 19 10 27 126 74 l131 52 0 72 0 72 -121 54
c-66 30 -123 58 -126 63 -4 7 7 71 23 129 5 15 23 18 146 20 l141 3 28 61 27
61 -89 99 c-48 54 -88 103 -89 107 0 13 82 117 93 117 6 0 63 -25 128 -56
l118 -57 54 48 54 48 -35 111 c-49 154 -50 152 26 194 35 19 64 33 66 31 1 -2
41 -50 89 -105 l87 -102 69 22 69 21 11 105 c19 170 18 168 55 173 17 2 51 5
76 5 l45 2 35 -122z m11004 -694 c22 -3 42 -3 44 2 13 35 71 120 83 122 9 1
28 -2 43 -8 l28 -10 -7 -80 -7 -79 35 -17 35 -17 61 43 c59 42 61 42 86 26 40
-26 40 -41 1 -107 l-36 -61 21 -34 c24 -39 17 -38 94 -19 82 20 83 20 100 -21
8 -20 15 -38 15 -40 0 -1 -27 -22 -60 -45 -60 -42 -64 -51 -51 -99 6 -22 17
-27 81 -41 l75 -15 0 -44 0 -44 -75 -15 c-64 -14 -75 -19 -81 -41 -13 -48 -9
-57 46 -95 31 -21 58 -41 61 -46 8 -13 -24 -79 -38 -79 -7 0 -42 7 -77 15 -59
14 -64 14 -77 -2 -34 -43 -34 -48 5 -116 l39 -65 -32 -31 -31 -30 -59 45 c-33
24 -64 44 -69 44 -5 0 -22 -8 -38 -17 -31 -19 -32 -23 -20 -115 l7 -57 -41
-14 -41 -15 -39 69 c-39 69 -39 69 -74 63 -20 -4 -39 -9 -42 -13 -4 -3 -17
-37 -29 -75 -22 -67 -23 -68 -52 -62 -17 3 -36 6 -43 6 -8 0 -15 26 -19 79
l-7 79 -40 10 -39 10 -49 -56 -50 -56 -35 17 c-20 9 -36 23 -36 30 0 7 10 41
21 76 l21 62 -23 25 c-29 31 -47 30 -118 -6 l-58 -29 -26 36 -26 36 50 56 c27
30 49 59 49 63 0 5 -7 22 -15 38 -15 29 -18 30 -90 30 -40 0 -76 3 -79 8 -2 4
-7 23 -11 43 l-7 36 71 29 71 29 0 41 0 41 -71 31 c-64 28 -71 34 -65 54 3 13
6 31 6 40 0 15 12 18 81 20 l81 3 15 38 15 38 -51 54 c-55 58 -55 60 -16 109
14 18 16 18 86 -13 l72 -32 29 28 28 29 -24 71 -25 72 36 22 36 23 54 -58 53
-57 39 12 39 11 6 79 7 78 42 3 42 3 24 -72 c24 -71 25 -72 65 -79z m-1953
-123 l34 -120 63 -7 c34 -3 64 -5 66 -3 1 2 29 48 61 102 33 53 63 97 67 97 4
0 32 -9 63 -21 63 -24 62 -16 40 -161 -9 -55 -14 -102 -13 -102 2 -1 23 -15
48 -31 24 -15 50 -28 56 -28 6 0 54 29 106 65 l94 66 47 -45 c26 -24 47 -47
47 -51 0 -4 -22 -42 -50 -84 -78 -123 -76 -112 -40 -169 19 -29 39 -49 50 -49
16 0 152 23 207 35 16 4 23 -1 31 -23 6 -15 17 -43 26 -63 l15 -36 -100 -67
-101 -67 7 -47 c11 -80 7 -77 130 -106 l115 -28 0 -68 0 -68 -92 -16 c-51 -9
-105 -19 -119 -22 -23 -4 -29 -13 -42 -67 -9 -34 -15 -62 -14 -63 1 0 40 -30
86 -65 47 -35 89 -67 95 -71 10 -7 -41 -128 -53 -128 -3 0 -56 13 -118 29
l-112 29 -40 -51 -40 -52 18 -30 c10 -16 37 -64 59 -106 l42 -76 -49 -42 c-27
-22 -52 -41 -56 -41 -3 0 -46 32 -94 70 -49 39 -94 70 -100 70 -6 0 -34 -12
-61 -27 -43 -24 -49 -32 -45 -53 2 -14 7 -68 11 -121 l6 -96 -62 -17 c-34 -10
-66 -14 -70 -9 -5 4 -31 52 -60 106 -55 104 -53 102 -133 91 l-45 -6 -38 -107
c-20 -58 -40 -109 -43 -113 -7 -8 -119 7 -129 17 -3 3 -9 54 -13 114 -4 61
-10 114 -13 120 -4 6 -31 18 -61 27 l-55 18 -83 -89 -82 -88 -58 37 c-32 21
-57 41 -55 45 2 4 21 55 42 115 l39 108 -44 38 c-24 22 -49 39 -55 40 -6 0
-57 -20 -113 -44 l-101 -45 -23 32 c-65 87 -67 71 29 168 l86 86 -25 59 -25
59 -120 3 c-134 3 -126 -2 -137 84 l-7 55 111 44 111 44 0 65 0 66 -105 48
c-114 53 -113 50 -92 131 l13 50 121 -4 121 -3 26 50 c14 28 26 56 26 63 0 6
-28 43 -63 83 -98 112 -94 98 -51 155 21 28 42 51 46 51 4 0 55 -23 112 -52
l104 -51 46 39 c25 21 45 44 46 50 0 6 -13 55 -30 109 -16 54 -30 103 -30 109
0 6 25 25 56 41 l56 30 51 -59 c29 -33 66 -75 82 -93 l30 -33 57 17 c65 18 60
8 79 165 l11 97 62 4 c33 2 64 4 67 5 4 1 22 -52 40 -117z m3697 -147 c19 -5
22 -13 22 -53 0 -53 5 -63 40 -81 23 -12 27 -10 65 34 23 25 45 46 51 46 5 0
19 -8 32 -18 l22 -17 -19 -57 -19 -56 22 -21 23 -21 58 25 c31 14 58 25 59 23
1 -2 10 -13 20 -26 19 -22 19 -22 -23 -72 -41 -49 -42 -50 -26 -80 15 -29 16
-30 74 -23 l60 6 6 -37 c4 -20 6 -38 4 -40 -2 -1 -26 -12 -54 -23 -45 -19 -50
-25 -53 -56 -3 -33 -1 -35 49 -53 56 -20 64 -31 55 -69 -6 -23 -11 -25 -66
-25 -56 0 -60 -2 -75 -30 -15 -29 -15 -31 25 -74 22 -24 40 -46 40 -50 0 -4
-8 -17 -17 -30 l-17 -23 -59 25 -58 26 -21 -22 c-22 -21 -22 -22 -4 -78 l18
-57 -23 -18 c-13 -10 -27 -19 -31 -19 -3 0 -24 20 -46 45 -37 42 -41 44 -69
34 -28 -9 -31 -15 -37 -69 -7 -59 -16 -70 -56 -70 -13 0 -23 15 -37 58 -18 52
-22 57 -51 60 -27 3 -35 -2 -50 -28 -35 -65 -46 -74 -77 -63 -27 9 -29 13 -27
54 2 24 5 52 8 61 3 12 -5 22 -26 33 -30 16 -32 15 -68 -13 -58 -45 -61 -46
-88 -21 l-24 22 31 53 c29 52 30 54 13 79 -15 23 -22 26 -48 20 -93 -20 -95
-19 -106 11 -11 27 -9 31 27 61 21 18 41 33 46 33 12 0 8 58 -5 67 -7 4 -35
13 -63 18 -48 10 -50 12 -53 46 l-3 36 60 12 c58 11 71 22 71 60 0 10 -21 32
-46 50 -40 29 -45 37 -39 60 10 39 16 41 78 27 57 -13 57 -13 76 13 l20 26
-31 53 -31 54 25 24 24 25 48 -37 c44 -34 49 -35 78 -23 l30 12 -7 64 c-6 61
-6 63 20 73 38 14 37 15 68 -40 25 -45 32 -50 63 -50 33 0 34 2 51 60 17 62
23 66 71 54z m-1479 -1321 c5 -21 17 -67 26 -103 9 -36 23 -88 31 -116 l14
-50 77 -12 c61 -10 79 -10 89 0 6 7 44 65 84 128 40 63 74 117 76 119 4 5 144
-48 156 -58 4 -4 -4 -72 -17 -151 -14 -80 -25 -148 -25 -151 0 -3 31 -26 68
-51 l68 -46 125 84 c68 46 129 84 134 84 6 0 37 -26 69 -59 l58 -58 -87 -130
-86 -130 42 -67 c30 -48 47 -66 63 -66 11 0 72 9 135 20 162 28 156 29 179
-32 11 -29 25 -65 30 -79 10 -25 7 -28 -119 -108 -142 -91 -136 -82 -118 -187
l11 -62 149 -37 149 -37 0 -84 c0 -67 -3 -86 -15 -90 -9 -4 -79 -16 -158 -28
l-142 -21 -17 -60 c-27 -99 -30 -94 97 -195 63 -50 115 -96 115 -101 0 -16
-70 -149 -78 -149 -4 0 -72 18 -151 40 -80 22 -145 39 -146 37 0 -1 -22 -27
-48 -59 -26 -31 -47 -61 -47 -67 0 -5 31 -70 70 -143 l69 -133 -59 -48 c-33
-26 -66 -50 -73 -52 -6 -3 -63 38 -125 90 -63 52 -118 95 -124 95 -5 0 -39
-16 -75 -36 l-64 -37 7 -156 6 -156 -81 -21 -82 -21 -11 21 c-7 12 -38 74 -70
139 l-57 117 -54 0 c-115 0 -109 5 -168 -154 -29 -77 -53 -142 -54 -144 -1 -1
-40 4 -86 11 l-84 13 -10 158 -10 158 -77 28 -77 28 -105 -109 c-58 -60 -107
-109 -110 -109 -3 0 -37 20 -76 45 l-70 45 24 62 c13 35 39 100 57 146 l32 83
-53 54 c-30 30 -60 55 -67 55 -7 0 -74 -24 -148 -54 l-136 -54 -49 72 -48 71
110 112 111 111 -28 76 -28 76 -41 1 c-22 1 -93 4 -156 8 l-115 6 -12 65 c-21
113 -31 101 132 161 l145 54 0 45 c0 25 3 62 6 82 l7 38 -139 67 c-77 36 -141
68 -143 69 -2 2 7 42 20 89 l22 86 46 -5 c25 -3 96 -8 156 -12 l110 -6 36 74
37 74 -70 84 c-38 47 -82 101 -98 121 l-29 35 36 45 c19 24 43 55 54 67 l18
24 140 -73 140 -72 58 48 c32 27 60 50 62 52 3 2 -13 67 -34 146 -21 78 -38
146 -39 151 -1 8 131 85 146 86 5 0 163 -194 189 -233 7 -9 131 16 156 31 7 4
23 75 35 157 l23 150 70 6 c39 3 78 6 87 7 12 1 20 -9 27 -35z m2807 -272 c12
-57 26 -107 31 -111 4 -4 31 -12 59 -17 l51 -9 64 92 65 92 51 -22 c29 -12 55
-25 58 -28 4 -3 -3 -52 -15 -107 -12 -56 -20 -107 -17 -114 3 -7 23 -25 46
-41 l41 -28 97 56 98 57 43 -46 c31 -32 41 -49 34 -58 -67 -86 -123 -171 -118
-182 2 -7 16 -31 29 -52 l25 -39 108 12 c60 7 112 10 115 6 4 -4 14 -29 23
-57 20 -59 27 -50 -99 -123 l-79 -47 3 -50 c1 -27 7 -55 12 -61 5 -6 52 -24
105 -40 53 -15 98 -34 101 -41 3 -7 2 -37 -1 -67 l-7 -54 -92 -6 c-134 -11
-131 -9 -151 -73 -10 -30 -14 -58 -9 -62 4 -4 43 -38 85 -75 l77 -67 -31 -52
c-16 -29 -31 -53 -32 -54 -1 -2 -51 13 -110 33 -59 20 -108 34 -109 32 -1 -2
-19 -22 -40 -44 l-37 -40 45 -97 c25 -53 45 -101 45 -106 0 -5 -22 -25 -48
-44 l-49 -35 -79 74 c-43 40 -85 73 -91 74 -7 0 -33 -10 -58 -22 l-45 -22 0
-113 0 -113 -27 -6 c-16 -3 -43 -10 -61 -14 l-33 -9 -31 67 c-16 37 -37 84
-45 105 l-15 37 -62 0 -61 0 -44 -105 c-37 -88 -47 -105 -62 -100 -20 5 -37 9
-81 19 l-28 6 0 114 0 114 -51 21 c-59 26 -48 31 -155 -72 l-62 -59 -45 31
c-25 17 -48 35 -52 40 -5 9 2 28 59 154 l26 57 -41 45 -41 44 -96 -34 c-54
-19 -102 -35 -109 -35 -6 0 -25 24 -42 52 l-30 53 57 50 c31 27 69 61 85 75
l28 25 -19 55 -19 55 -79 8 c-157 16 -154 13 -154 103 l0 41 104 32 104 33 6
36 c13 81 12 84 -72 129 -123 66 -117 59 -98 128 l17 58 67 -7 c37 -4 88 -9
113 -12 47 -6 47 -6 73 38 14 25 26 51 26 59 0 8 -29 52 -65 99 l-64 85 42 43
c22 23 45 42 50 42 5 0 46 -22 92 -50 46 -27 88 -50 94 -50 23 0 101 64 97 79
-9 30 -46 193 -46 200 0 8 94 51 111 51 5 0 125 -159 133 -177 3 -5 107 24
114 32 5 6 17 53 27 105 10 52 20 99 22 103 3 4 32 7 66 5 l61 -3 22 -104z
m2349 -26 c8 -60 8 -59 46 -69 23 -5 31 0 60 39 29 38 38 44 59 39 39 -9 42
-18 27 -78 -15 -56 -15 -56 10 -76 l25 -19 52 29 53 30 23 -24 22 -25 -36 -50
c-33 -45 -35 -52 -24 -76 12 -26 14 -27 75 -22 l63 5 8 -32 c9 -30 7 -32 -44
-61 -80 -45 -72 -89 20 -115 38 -10 46 -17 46 -36 0 -36 -26 -54 -80 -54 -45
0 -49 -2 -59 -31 -10 -30 -9 -33 34 -71 l45 -40 -17 -29 c-10 -16 -20 -29 -23
-29 -3 0 -28 9 -56 19 l-51 20 -23 -24 -23 -24 22 -50 c26 -61 26 -57 -4 -77
-24 -15 -26 -15 -72 24 -45 39 -48 40 -75 26 -26 -13 -28 -19 -28 -73 0 -58 0
-59 -32 -65 -17 -3 -32 -5 -34 -4 -1 2 -11 26 -22 53 -18 45 -23 50 -54 53
-32 3 -35 0 -58 -48 -23 -49 -38 -58 -74 -44 -12 5 -16 21 -16 68 0 59 -2 63
-27 72 -25 9 -33 6 -74 -28 l-47 -38 -25 21 -26 20 26 54 27 55 -23 24 -23 24
-54 -18 -54 -19 -15 22 c-22 32 -19 41 29 81 42 34 44 38 35 65 -10 30 -38 41
-99 41 -24 0 -28 5 -33 33 -2 17 -3 35 -1 38 2 3 28 12 59 19 41 10 55 18 55
31 0 9 3 24 6 32 3 10 -11 24 -43 42 -26 15 -50 29 -51 31 -2 1 -1 17 3 35 l7
32 63 -7 c59 -6 63 -5 79 19 17 25 16 27 -19 77 l-36 50 22 24 22 24 54 -31
c51 -29 55 -30 78 -15 28 18 29 23 14 86 -9 38 -8 46 7 57 30 22 48 15 79 -32
26 -39 34 -45 60 -43 26 3 32 9 43 48 8 25 15 51 18 58 2 6 19 12 38 12 34 0
35 0 41 -55z m-16921 -190 c5 -27 9 -51 10 -51 0 -1 15 -5 31 -8 27 -6 33 -2
60 39 33 49 40 52 72 30 20 -14 21 -17 7 -67 -7 -29 -12 -52 -11 -53 1 0 12
-8 23 -18 21 -18 23 -17 73 10 l52 28 19 -24 20 -23 -35 -47 c-33 -45 -33 -49
-18 -70 14 -21 22 -23 70 -19 44 4 56 2 64 -13 17 -32 10 -46 -36 -70 -39 -21
-45 -28 -45 -56 0 -30 3 -33 55 -49 56 -18 59 -22 49 -61 -5 -19 -14 -23 -57
-25 -46 -3 -53 -6 -66 -32 -13 -28 -12 -30 29 -65 40 -34 41 -37 29 -63 -14
-33 -19 -33 -76 -12 -41 16 -44 16 -63 -1 -25 -23 -25 -36 0 -85 11 -22 20
-41 20 -43 0 -3 -12 -12 -26 -22 -26 -17 -27 -16 -65 21 -35 34 -42 37 -66 28
-25 -8 -28 -15 -33 -69 -5 -58 -6 -60 -35 -63 -28 -3 -32 1 -50 48 -18 45 -22
50 -51 50 -28 0 -34 -5 -53 -50 -21 -49 -33 -56 -65 -44 -12 5 -16 20 -16 60
0 49 -2 55 -29 69 -17 8 -32 11 -36 6 -3 -5 -22 -23 -43 -39 -37 -30 -37 -30
-61 -11 l-24 20 23 49 c22 46 22 51 7 74 -16 23 -18 24 -59 11 -24 -7 -49 -15
-57 -16 -8 -2 -21 8 -29 22 -15 24 -14 27 26 65 34 32 40 44 36 66 -5 24 -11
27 -65 33 -59 7 -59 7 -59 40 0 30 3 33 45 45 74 21 87 68 28 99 -65 34 -65
35 -53 66 10 27 12 28 69 22 58 -6 59 -6 71 23 11 27 9 33 -20 70 -32 40 -32
41 -14 63 10 12 20 24 21 25 1 2 21 -8 46 -22 51 -30 64 -32 87 -11 15 14 16
21 4 71 -12 55 -12 55 12 65 38 14 40 13 71 -36 31 -49 31 -49 66 -36 19 8 27
20 32 53 10 57 12 60 48 56 30 -3 33 -6 41 -53z m8676 -344 l5 -195 88 -38 88
-39 54 48 c30 26 94 85 143 130 l89 82 83 -60 c46 -32 85 -61 87 -63 2 -2 -30
-79 -71 -171 -42 -93 -76 -173 -76 -179 0 -6 29 -43 64 -82 l65 -71 172 59
c95 32 178 58 185 58 12 0 105 -149 108 -173 0 -7 -61 -69 -136 -136 -76 -68
-138 -129 -138 -135 0 -15 51 -169 59 -178 3 -4 89 -14 191 -24 102 -9 188
-21 191 -27 4 -5 10 -46 13 -91 4 -44 9 -88 12 -97 3 -12 -32 -27 -180 -74
l-185 -59 -5 -46 c-3 -25 -8 -70 -12 -100 l-6 -56 153 -84 c83 -47 159 -90
168 -96 14 -11 12 -22 -14 -105 -16 -52 -32 -97 -35 -102 -4 -4 -86 2 -183 13
-97 11 -183 20 -189 20 -11 0 -108 -156 -108 -172 0 -3 52 -73 115 -158 l114
-153 -71 -78 c-39 -44 -73 -79 -75 -79 -3 0 -78 43 -168 96 l-164 95 -78 -57
c-43 -32 -79 -58 -81 -60 -2 -1 15 -83 37 -182 23 -99 41 -184 41 -189 0 -14
-190 -97 -199 -87 -4 5 -54 73 -110 151 -56 79 -106 145 -109 147 -4 2 -50 -5
-102 -17 l-95 -22 -28 -135 c-15 -74 -32 -159 -38 -187 l-10 -53 -108 0 -108
0 -39 187 -39 187 -80 18 c-44 9 -89 18 -101 18 -16 0 -47 -37 -130 -155 -59
-86 -113 -154 -119 -151 -20 8 -180 80 -183 82 -2 1 14 87 36 190 38 174 39
189 24 201 -9 7 -47 33 -83 58 l-66 46 -144 -87 c-202 -122 -179 -117 -240
-50 -101 111 -103 82 18 247 58 79 108 150 110 157 3 6 -17 50 -43 97 l-49 85
-40 -5 c-22 -3 -109 -14 -193 -24 l-153 -17 -30 98 c-17 53 -28 101 -25 106 3
5 78 51 166 102 141 80 161 95 157 114 -3 11 -9 56 -12 98 l-7 78 -132 41
c-72 22 -155 48 -183 57 -35 10 -53 21 -53 31 0 25 20 195 23 198 2 1 88 11
191 22 103 11 189 21 190 23 5 9 56 176 56 184 0 6 -56 58 -124 117 -178 155
-166 132 -118 219 69 124 41 119 249 50 l182 -60 67 75 67 74 -81 175 -81 174
86 65 87 65 25 -23 c14 -12 78 -71 142 -130 l117 -107 91 42 91 41 0 193 0
193 95 21 c52 12 100 20 107 17 7 -2 47 -81 88 -176 l75 -171 100 0 101 0 54
128 c29 70 64 150 76 178 l23 52 103 -22 103 -21 5 -194z m-3178 -178 c18 -61
20 -63 52 -63 30 0 38 6 66 50 33 51 53 60 84 37 16 -12 17 -21 9 -74 -9 -60
-9 -61 19 -78 29 -17 30 -16 82 18 l53 35 28 -23 27 -24 -36 -57 -35 -57 21
-29 c11 -17 26 -27 34 -24 8 3 36 8 64 12 47 6 50 5 60 -20 15 -40 14 -41 -40
-76 -51 -33 -60 -53 -40 -89 6 -12 26 -21 53 -25 60 -9 76 -24 70 -63 -5 -30
-8 -32 -58 -38 -65 -9 -73 -14 -81 -50 -5 -27 0 -34 45 -69 28 -21 51 -40 51
-43 0 -2 -7 -17 -15 -32 l-14 -29 -62 15 c-61 16 -61 16 -86 -9 l-25 -25 33
-57 32 -58 -26 -26 -26 -26 -53 41 c-50 40 -53 41 -80 27 -27 -14 -28 -18 -28
-84 0 -49 -4 -70 -12 -70 -7 0 -22 -3 -34 -6 -17 -5 -26 4 -50 51 -28 53 -31
56 -64 53 -33 -3 -36 -6 -55 -60 -19 -56 -21 -58 -56 -58 l-36 0 -7 69 c-7 67
-8 70 -39 80 -30 11 -33 10 -70 -34 -43 -50 -51 -53 -86 -26 l-25 19 23 58 22
58 -25 25 -25 25 -60 -26 -60 -26 -20 31 -20 32 45 46 c42 43 44 47 33 77 -10
30 -13 31 -77 34 l-66 3 -7 33 c-7 34 -6 34 57 62 58 27 64 32 64 59 0 27 -7
34 -60 61 -56 28 -60 32 -54 58 11 43 14 45 79 38 l61 -6 16 32 c15 33 15 33
-27 83 l-43 50 23 28 22 29 51 -26 c62 -31 73 -32 97 -6 17 19 17 25 5 73 -7
29 -15 57 -17 63 -2 6 10 17 28 25 32 13 33 12 75 -35 38 -43 45 -47 73 -41
33 7 35 11 46 98 l6 48 37 -3 c35 -3 37 -5 54 -65z m11127 -589 c2 -2 14 -63
27 -135 13 -73 26 -134 28 -136 6 -6 109 -33 128 -33 13 0 70 67 184 218 2 4
144 -66 144 -71 0 -2 -16 -64 -35 -137 -19 -74 -31 -137 -27 -140 4 -4 30 -25
58 -47 l50 -42 125 69 124 69 43 -47 c70 -78 72 -68 -23 -186 -47 -58 -85
-110 -85 -116 0 -6 15 -38 33 -71 l32 -60 50 5 c28 3 91 8 142 12 l91 6 21
-69 c12 -39 21 -74 21 -79 0 -5 -57 -38 -126 -72 l-126 -63 7 -72 c4 -40 10
-75 14 -78 3 -4 62 -26 129 -49 68 -24 126 -48 127 -54 2 -6 -1 -42 -8 -81 -8
-48 -17 -70 -27 -72 -8 -1 -72 -5 -142 -8 l-126 -7 -25 -69 -25 -70 103 -100
103 -100 -40 -65 c-22 -35 -44 -64 -48 -64 -5 0 -65 21 -135 47 l-126 46 -53
-52 -54 -53 54 -130 c30 -72 54 -131 54 -133 0 -5 -119 -85 -127 -85 -5 0 -51
43 -103 95 -52 52 -100 95 -106 95 -6 0 -37 -11 -70 -24 l-59 -24 -7 -54 c-3
-29 -6 -94 -7 -145 l-1 -91 -70 -12 c-38 -6 -75 -10 -80 -8 -6 2 -34 61 -61
131 l-51 127 -58 0 c-32 0 -65 3 -74 6 -12 4 -30 -25 -77 -125 -34 -72 -65
-131 -68 -131 -3 0 -37 9 -76 18 l-70 18 4 145 3 145 -63 27 c-35 15 -68 27
-72 27 -5 0 -55 -40 -111 -89 l-102 -89 -35 27 c-19 14 -48 36 -64 49 l-29 23
64 128 63 129 -48 56 c-31 36 -55 54 -64 51 -34 -10 -256 -75 -258 -75 -10 0
-73 144 -66 149 5 3 55 43 110 89 l101 83 -19 66 c-10 37 -22 70 -26 74 -5 4
-69 15 -143 24 -74 9 -136 18 -136 19 -1 0 -3 37 -5 80 l-4 80 135 36 134 37
7 34 c4 19 9 52 13 75 l6 40 -120 73 c-66 40 -120 76 -120 80 0 23 45 133 56
138 7 3 66 -3 131 -12 65 -9 124 -17 132 -18 7 -1 31 26 53 60 l40 63 -76 109
c-41 60 -77 114 -78 119 -2 5 21 35 50 66 l54 57 119 -77 119 -76 60 38 c41
27 60 45 60 59 -1 11 -11 75 -24 143 l-23 124 24 9 c13 5 47 19 74 30 27 12
51 20 53 18 1 -2 37 -56 78 -121 l76 -116 73 14 c39 7 73 15 74 16 2 2 17 65
35 141 l33 138 76 -7 c42 -4 78 -8 80 -10z m-12144 -862 l80 -182 110 2 110 3
76 180 c42 98 81 181 87 183 6 2 57 -6 113 -17 56 -12 104 -21 107 -21 2 0 3
-93 1 -206 l-4 -206 90 -38 c50 -22 95 -39 102 -40 6 0 77 61 157 136 l146
135 94 -66 93 -66 -83 -186 -84 -185 39 -47 c22 -25 55 -61 74 -79 l34 -33
192 65 191 65 55 -93 c30 -52 55 -98 55 -103 0 -4 -67 -68 -149 -141 l-149
-133 34 -102 34 -103 148 -12 c81 -7 172 -16 203 -19 l57 -6 6 -66 c4 -36 9
-87 12 -113 l6 -47 -195 -62 -195 -63 -6 -65 c-4 -36 -9 -84 -12 -107 l-6 -41
176 -97 c117 -65 176 -104 176 -115 0 -9 -14 -58 -31 -108 -28 -86 -33 -93
-57 -93 -27 0 -261 24 -339 35 l-41 6 -52 -92 c-28 -50 -49 -96 -47 -103 3 -6
57 -80 121 -165 l115 -154 -26 -31 c-50 -60 -122 -136 -128 -136 -3 0 -71 38
-151 85 -222 130 -189 122 -270 64 -38 -28 -76 -57 -85 -65 -15 -13 -12 -31
27 -202 24 -103 43 -192 44 -198 0 -10 -48 -34 -176 -89 l-31 -14 -118 165
-118 165 -36 -6 c-20 -3 -67 -14 -106 -23 l-69 -17 -39 -196 -39 -197 -110 -7
c-60 -4 -112 -4 -115 -1 -3 3 -25 94 -47 203 l-42 197 -104 22 c-97 21 -105
21 -116 6 -7 -9 -59 -83 -116 -164 -57 -81 -107 -148 -113 -148 -8 0 -193 77
-203 85 -1 1 16 86 38 188 22 103 40 193 40 201 0 8 -38 42 -84 75 l-84 61
-174 -105 -173 -104 -77 82 c-43 45 -76 87 -74 93 2 6 54 79 115 162 61 83
111 156 111 163 0 6 -21 49 -47 95 -56 98 -34 92 -259 64 -87 -11 -169 -20
-181 -20 -18 0 -26 15 -56 105 -26 77 -32 106 -24 113 7 5 77 46 157 92 80 45
154 88 166 95 19 13 20 17 9 115 -7 61 -16 105 -24 109 -7 5 -96 34 -198 66
-184 56 -186 56 -205 37 -15 -15 -18 -27 -13 -55 7 -38 9 -39 106 -53 42 -5
48 -9 53 -36 11 -54 9 -56 -68 -74 l-75 -17 -6 -39 c-4 -22 -5 -40 -3 -42 74
-46 118 -78 118 -86 0 -7 -18 -54 -26 -68 -1 -1 -34 3 -74 9 -71 12 -73 12
-91 -12 -26 -34 -24 -47 17 -108 l36 -53 -30 -30 -30 -30 -60 41 -61 41 -34
-20 -34 -20 12 -74 11 -74 -39 -16 -38 -15 -40 64 c-40 63 -41 63 -77 58 -20
-3 -39 -7 -40 -9 -2 -1 -12 -33 -21 -71 l-18 -68 -38 2 c-21 2 -42 8 -46 14
-4 7 -10 40 -14 74 -6 63 -6 63 -45 73 l-39 10 -47 -59 -46 -58 -38 19 -37 19
20 71 21 70 -27 27 -27 27 -70 -34 c-38 -18 -71 -32 -73 -29 -2 2 -13 17 -25
33 l-22 29 45 52 c50 59 51 64 30 105 -15 28 -15 28 -88 23 -73 -6 -74 -5 -81
20 -3 14 -9 32 -12 41 -4 11 12 24 63 49 l69 35 -4 39 c-4 38 -6 40 -70 65
-66 25 -67 26 -64 59 2 19 6 37 9 42 2 4 33 7 68 7 69 0 90 12 101 57 6 20 -2
34 -44 76 l-51 52 20 33 c12 17 25 32 30 32 5 0 37 -12 71 -26 l61 -26 29 30
29 29 -27 68 c-22 56 -25 69 -13 76 8 4 23 14 34 23 19 14 24 11 76 -40 l55
-55 37 16 37 15 0 70 c0 38 3 71 8 73 4 2 23 7 44 11 l36 7 22 -66 c24 -73 22
-71 70 -80 35 -6 35 -6 67 59 33 67 42 73 91 60 20 -6 22 -12 22 -85 0 -77 0
-79 30 -94 34 -18 36 -17 102 38 l48 39 29 -24 c17 -12 30 -27 30 -33 0 -5
-13 -34 -29 -64 -35 -64 -36 -68 -9 -100 20 -24 20 -24 82 -10 l62 14 3 48 c2
27 9 50 15 52 7 3 97 14 201 24 104 11 192 23 196 28 9 9 60 172 60 190 0 6
-67 71 -150 143 -139 122 -149 133 -139 153 50 95 103 178 113 174 6 -2 94
-30 194 -62 l184 -59 68 74 c38 41 69 78 70 82 0 4 -28 67 -61 140 -34 73 -72
156 -84 183 l-23 51 81 59 c44 33 86 63 92 67 11 7 63 -38 292 -245 l23 -20
95 43 95 43 2 206 3 206 95 22 c52 12 102 21 110 20 9 -2 46 -73 95 -185z
m9066 -415 c20 -98 39 -180 40 -181 2 -2 46 -12 97 -23 l94 -20 37 51 c20 28
70 97 110 154 82 117 66 112 191 53 l77 -36 -38 -175 c-21 -96 -39 -180 -39
-185 0 -6 36 -36 79 -67 l79 -57 158 94 c87 52 162 95 165 95 10 0 139 -142
139 -153 0 -5 -47 -74 -105 -152 -58 -79 -105 -148 -105 -154 0 -6 21 -48 47
-92 46 -80 46 -80 82 -75 105 16 322 38 333 33 8 -2 27 -46 43 -97 35 -109 53
-85 -153 -202 l-143 -81 7 -75 c12 -134 -4 -120 198 -181 l178 -55 -6 -65 c-4
-36 -9 -84 -12 -107 l-6 -40 -181 -18 c-100 -10 -185 -21 -189 -25 -11 -10
-58 -151 -58 -172 0 -11 57 -69 138 -139 75 -67 136 -125 135 -129 -2 -8 -62
-114 -89 -157 l-13 -22 -178 59 c-98 32 -179 59 -180 59 0 0 -31 -33 -67 -74
l-66 -73 80 -173 c44 -95 79 -174 78 -174 -2 -1 -38 -27 -80 -59 -43 -31 -82
-57 -88 -57 -6 0 -72 56 -147 124 l-135 124 -89 -41 -89 -40 0 -191 0 -191
-102 -22 c-56 -12 -103 -21 -104 -20 -1 1 -36 79 -77 172 l-74 170 -100 3 -99
3 -74 -173 c-40 -95 -75 -175 -76 -176 -1 -2 -49 6 -106 18 l-104 22 1 189 0
190 -89 39 -88 40 -44 -37 c-24 -21 -87 -79 -141 -129 l-98 -92 -83 60 c-45
33 -82 65 -82 72 0 6 34 85 75 175 l74 163 -66 74 c-37 41 -68 74 -69 74 -2 0
-81 -27 -176 -60 -95 -33 -175 -60 -178 -60 -3 0 -29 40 -58 89 l-52 90 47 44
c27 24 90 81 141 126 50 46 92 84 92 84 0 1 -13 42 -29 91 -20 61 -35 92 -48
96 -10 4 -88 13 -173 19 -85 7 -162 15 -172 17 -16 5 -18 13 -34 156 l-6 57
180 57 181 57 6 66 c15 145 31 121 -150 223 -88 50 -161 92 -163 93 -2 2 11
49 29 105 l32 101 36 -5 c97 -15 325 -37 335 -33 7 3 34 42 59 86 l46 82 -106
142 c-58 78 -109 147 -114 153 -5 6 20 41 64 88 l72 79 162 -96 163 -95 80 59
c67 50 79 63 75 82 -26 110 -75 330 -75 338 0 11 161 89 183 89 7 0 61 -68
121 -151 92 -127 112 -150 129 -145 12 3 55 13 97 22 l76 16 34 172 c18 94 35
177 38 184 3 9 31 12 110 10 l106 -3 37 -178z m-2890 -49 c13 -48 17 -53 45
-56 28 -3 35 2 60 41 26 42 29 44 57 35 28 -10 29 -12 22 -56 -4 -24 -8 -50
-11 -56 -2 -6 8 -19 21 -29 24 -17 26 -17 62 6 21 13 43 26 49 30 6 3 21 -4
32 -16 l22 -23 -32 -43 c-30 -41 -31 -45 -17 -70 15 -27 21 -27 95 -16 26 4
33 1 42 -21 15 -31 12 -37 -38 -65 -34 -19 -40 -28 -40 -54 0 -30 3 -33 53
-46 47 -13 52 -17 55 -45 3 -31 2 -32 -54 -40 -51 -8 -58 -12 -67 -38 -6 -18
-6 -31 0 -35 6 -3 25 -19 43 -34 30 -26 31 -30 20 -56 l-12 -29 -55 16 c-55
15 -56 15 -74 -7 -18 -22 -18 -24 7 -72 l25 -50 -23 -19 c-30 -25 -30 -25 -59
6 -36 39 -54 46 -84 32 -26 -11 -26 -14 -20 -70 5 -45 4 -58 -7 -58 -7 0 -22
-3 -33 -6 -17 -4 -25 4 -45 46 -22 46 -27 51 -53 48 -26 -3 -33 -10 -49 -54
-18 -46 -22 -51 -46 -46 -35 7 -42 18 -42 73 0 40 -3 47 -27 58 -24 11 -29 9
-68 -29 l-42 -41 -23 19 -24 19 21 51 21 50 -23 22 -22 21 -51 -20 -50 -20
-17 26 c-17 25 -16 26 25 68 38 39 40 44 29 68 -11 24 -18 27 -65 27 -38 0
-53 4 -58 16 -15 38 -6 51 47 70 46 17 52 23 55 50 3 27 -1 32 -48 54 -51 24
-55 30 -41 64 6 17 16 19 64 17 52 -2 58 0 68 23 12 26 13 24 -38 94 -15 22
-15 24 6 45 l21 22 48 -27 c47 -26 47 -26 70 -7 23 18 23 21 11 70 -12 47 -12
52 6 65 29 21 40 17 70 -26 27 -39 54 -50 82 -32 6 4 15 31 19 60 6 51 7 52
39 52 30 0 33 -3 46 -52z m424 -1203 c14 -50 18 -55 45 -55 23 0 33 8 51 40
19 33 28 40 49 38 23 -3 25 -6 25 -60 0 -45 4 -60 20 -71 17 -14 24 -12 63 15
l44 30 21 -21 c23 -23 24 -20 -19 -87 -12 -17 -11 -23 2 -43 14 -20 21 -22 68
-16 48 6 53 5 63 -18 10 -22 8 -27 -33 -55 -63 -45 -57 -79 18 -97 38 -9 43
-14 46 -41 3 -30 2 -31 -49 -40 -45 -8 -54 -13 -60 -35 -6 -24 -1 -31 36 -59
39 -29 42 -35 33 -56 -12 -26 -26 -29 -78 -14 -29 8 -38 7 -54 -10 -20 -19
-20 -20 4 -71 24 -50 24 -51 5 -65 -25 -19 -27 -18 -69 15 -33 26 -41 28 -62
18 -24 -10 -25 -15 -22 -66 3 -52 2 -55 -25 -62 -25 -7 -29 -4 -52 40 -21 43
-27 47 -53 43 -24 -3 -32 -11 -41 -40 -17 -56 -25 -64 -54 -56 -24 5 -27 11
-27 49 0 79 -49 99 -97 39 -27 -34 -31 -36 -54 -24 -13 7 -25 14 -27 15 -2 2
5 26 15 54 17 48 17 52 0 68 -16 17 -20 17 -69 -1 -50 -17 -52 -17 -65 0 -19
27 -16 37 21 73 30 29 33 36 24 57 -10 21 -18 24 -65 24 -39 0 -53 4 -53 14 0
8 -3 22 -6 31 -5 12 6 21 45 37 44 19 51 26 51 50 0 23 -7 30 -46 47 -40 18
-45 24 -42 48 3 26 6 28 59 31 48 2 58 6 67 26 9 21 6 29 -24 64 -34 40 -34
40 -15 63 l19 24 48 -23 c47 -23 47 -23 66 -4 17 17 18 24 9 58 -15 54 -14 62
11 75 20 11 26 8 58 -30 32 -37 39 -41 62 -32 21 8 26 18 32 60 5 41 10 50 29
54 12 2 25 5 29 6 4 0 14 -24 23 -54z m-1665 -40 c19 -76 23 -82 61 -87 28 -4
34 0 70 54 l40 58 32 -13 c35 -15 38 -29 23 -117 -7 -43 -6 -46 23 -63 l31
-18 57 35 58 36 29 -29 29 -30 -42 -56 -42 -56 20 -33 21 -33 66 10 c72 10 81
7 90 -38 5 -28 2 -32 -56 -65 -49 -28 -60 -39 -55 -55 2 -11 5 -27 5 -37 0
-11 21 -22 71 -38 64 -19 70 -23 65 -43 -3 -12 -6 -30 -6 -39 0 -13 -14 -18
-70 -24 -69 -6 -69 -7 -81 -42 -12 -36 -12 -36 42 -83 l54 -48 -18 -34 -18
-34 -71 21 -70 21 -23 -29 -23 -29 31 -63 31 -63 -25 -20 c-33 -28 -40 -27
-92 19 -49 44 -54 45 -92 28 -23 -11 -25 -16 -25 -85 0 -40 -4 -73 -9 -73 -5
0 -22 -3 -40 -6 -30 -6 -31 -5 -57 55 -26 60 -27 61 -66 61 -38 0 -39 -1 -68
-64 -28 -63 -28 -64 -62 -57 l-33 7 -3 70 c-3 70 -3 71 -39 88 l-36 17 -52
-51 -51 -51 -30 22 c-16 13 -31 24 -33 25 -1 2 9 28 23 60 32 69 32 75 2 103
l-24 23 -57 -21 c-72 -27 -77 -27 -98 11 l-18 31 51 44 c53 47 57 57 39 96
-10 21 -20 26 -80 31 l-68 7 -7 35 c-8 43 -4 46 66 69 61 19 70 27 70 67 0 23
-9 32 -60 59 -62 33 -67 40 -50 84 10 25 12 26 80 23 68 -3 71 -2 88 25 18 29
19 26 -35 100 l-32 43 24 30 24 29 64 -34 c64 -34 65 -34 91 -15 29 22 30 29
12 107 l-14 58 29 14 c15 8 32 15 37 15 5 0 26 -25 48 -55 30 -43 44 -54 59
-50 11 2 28 5 37 5 12 0 20 15 28 58 19 96 18 93 58 90 36 -3 37 -4 52 -63z
m-1741 -125 c12 -38 26 -70 30 -70 5 0 22 -3 39 -6 29 -6 32 -3 68 60 21 36
43 66 50 66 6 0 25 -5 43 -11 28 -10 31 -14 27 -43 -19 -124 -20 -120 20 -140
41 -19 32 -23 130 51 l31 23 26 -28 c15 -16 27 -32 27 -38 0 -5 -16 -35 -35
-67 l-35 -58 22 -29 c24 -34 38 -35 119 -16 l57 14 18 -39 c9 -22 15 -41 13
-43 -2 -1 -30 -22 -62 -45 -48 -35 -58 -47 -53 -64 3 -12 6 -29 6 -38 0 -12
17 -20 63 -28 102 -20 98 -18 95 -64 l-3 -42 -72 -15 c-39 -8 -73 -17 -76 -20
-2 -3 -7 -21 -11 -41 -6 -35 -5 -37 49 -73 31 -20 58 -43 61 -51 6 -14 -22
-75 -34 -75 -4 0 -36 7 -72 16 l-65 15 -22 -26 c-13 -14 -23 -31 -23 -38 0 -7
16 -39 36 -71 l35 -59 -30 -31 -31 -30 -32 24 c-18 13 -47 34 -63 46 l-30 23
-34 -21 -33 -21 6 -77 c7 -76 7 -78 -17 -84 -14 -3 -32 -9 -40 -12 -11 -4 -26
13 -53 60 -39 67 -50 74 -100 60 -17 -4 -26 -22 -41 -72 l-19 -67 -42 -3 c-48
-4 -48 -4 -57 90 -6 66 -7 67 -43 79 l-36 12 -52 -57 -51 -58 -34 17 c-19 10
-36 19 -37 20 -2 2 7 35 19 74 l23 71 -28 29 -28 29 -70 -31 -71 -31 -23 29
c-13 17 -24 33 -24 37 0 3 23 31 50 61 l50 55 -17 36 -17 36 -77 0 c-71 0 -77
2 -83 23 -14 53 -9 62 57 89 62 26 62 26 65 70 l3 45 -66 27 c-68 29 -73 38
-59 94 6 20 12 22 84 22 73 0 77 1 88 25 18 40 15 49 -33 103 -25 27 -45 54
-45 58 0 5 11 22 23 38 l24 29 68 -32 69 -32 30 30 29 30 -25 70 -25 71 36 21
36 21 53 -57 c52 -56 53 -56 88 -45 41 14 40 13 49 103 l7 67 42 0 42 0 23
-70z m8250 -157 c6 -42 12 -78 14 -79 1 -1 18 -5 38 -9 33 -6 38 -4 83 49 l47
55 34 -16 c41 -19 41 -22 16 -101 l-18 -61 28 -27 29 -28 67 33 67 33 29 -32
28 -31 -50 -58 -50 -58 17 -34 17 -34 76 3 77 4 7 -42 c4 -23 5 -43 3 -44 -1
-2 -31 -18 -65 -35 -60 -30 -63 -33 -63 -69 0 -37 1 -37 68 -63 66 -26 67 -27
66 -63 -1 -20 -4 -40 -8 -44 -4 -3 -39 -8 -78 -10 -69 -4 -70 -5 -85 -40 l-14
-35 52 -53 52 -52 -22 -35 -22 -36 -71 30 -72 29 -27 -26 -28 -27 25 -65 c13
-35 24 -68 24 -72 0 -5 -15 -17 -32 -29 l-33 -20 -55 54 -55 55 -35 -18 c-35
-17 -35 -18 -38 -89 -2 -53 -7 -73 -16 -73 -8 0 -27 -3 -44 -6 -29 -6 -30 -5
-52 60 -12 36 -25 68 -28 70 -4 2 -23 6 -42 8 -34 3 -36 1 -68 -59 -34 -65
-48 -73 -96 -54 -17 6 -19 17 -17 84 2 75 2 76 -28 91 -16 9 -32 16 -34 16 -3
0 -31 -20 -63 -45 l-58 -45 -25 22 c-14 13 -28 24 -30 26 -3 1 10 33 28 71
l34 68 -23 30 -22 31 -71 -19 c-39 -10 -74 -16 -78 -14 -3 3 -12 19 -20 36
-14 35 -14 34 70 100 32 25 33 29 24 65 -9 39 -9 39 -76 50 -37 6 -69 13 -72
16 -3 3 -6 22 -8 43 l-2 39 69 16 c51 11 71 20 77 35 18 47 10 62 -51 101 -33
22 -60 42 -60 45 0 4 7 22 15 42 l14 35 68 -14 c37 -8 72 -13 78 -10 5 2 18
17 27 34 18 29 18 30 -23 93 l-41 63 33 27 33 27 60 -40 59 -41 34 19 c37 20
37 19 17 140 -5 29 -3 33 30 44 20 6 40 9 44 6 5 -3 24 -31 43 -61 33 -54 35
-56 74 -53 l40 3 20 73 20 72 41 0 42 0 11 -77z"/>
<path d="M10167 13390 c-139 -35 -231 -152 -231 -295 -1 -124 62 -218 182
-273 47 -21 65 -24 131 -20 87 5 140 28 197 85 108 108 114 292 13 407 -71 80
-194 120 -292 96z"/>
<path d="M8919 12447 c-192 -71 -276 -282 -187 -466 71 -147 257 -219 412
-161 76 29 147 94 183 169 24 49 28 68 28 146 0 79 -4 97 -28 143 -34 65 -93
123 -155 154 -57 28 -195 36 -253 15z"/>
<path d="M6175 12047 c-172 -45 -298 -184 -327 -360 -29 -173 70 -365 230
-446 251 -127 549 8 618 279 53 210 -63 434 -266 511 -68 26 -187 33 -255 16z"/>
<path d="M7788 10784 c-148 -35 -288 -149 -353 -286 -172 -363 106 -779 505
-755 269 16 480 225 497 492 7 102 -9 176 -57 274 -108 215 -360 332 -592 275z"/>
<path d="M7465 8153 c-151 -32 -279 -99 -391 -206 -176 -167 -268 -397 -251
-632 8 -112 30 -193 82 -300 134 -276 404 -446 710 -447 142 0 233 20 360 82
275 134 445 403 446 706 0 149 -19 238 -77 359 -159 327 -530 513 -879 438z"/>
<path d="M11227 12149 c-274 -44 -375 -388 -170 -580 171 -160 460 -93 542
127 91 241 -117 495 -372 453z"/>
<path d="M13210 11206 c-125 -35 -225 -118 -282 -233 -31 -64 -33 -73 -33
-178 0 -103 2 -114 31 -176 77 -162 214 -249 390 -249 173 0 313 89 386 246
55 117 48 278 -17 388 -95 162 -302 250 -475 202z"/>
<path d="M15652 11098 c-122 -19 -247 -120 -293 -236 -18 -44 -23 -77 -24
-147 0 -80 4 -97 32 -157 40 -85 106 -151 191 -191 60 -28 77 -32 157 -32 115
1 183 26 261 97 179 164 168 447 -24 594 -82 62 -194 89 -300 72z"/>
<path d="M10580 10114 c-199 -42 -356 -188 -426 -394 -29 -86 -25 -254 8 -342
59 -157 151 -260 291 -327 226 -109 476 -65 653 115 187 189 214 484 63 708
-60 90 -120 144 -214 191 -120 61 -246 77 -375 49z"/>
<path d="M17465 10457 c-166 -81 -200 -289 -68 -408 105 -94 253 -89 350 13
44 45 63 96 63 168 0 72 -19 123 -63 168 -46 48 -102 74 -172 79 -49 3 -69 0
-110 -20z"/>
<path d="M4360 9674 c-445 -117 -598 -667 -275 -989 118 -118 254 -175 420
-175 202 0 376 91 489 257 138 203 138 457 1 664 -79 118 -207 207 -350 244
-74 19 -212 18 -285 -1z"/>
<path d="M16710 8673 c-106 -18 -257 -95 -346 -176 -280 -257 -309 -676 -69
-979 121 -152 348 -258 550 -258 102 0 210 26 315 77 81 39 108 59 185 137 73
73 99 107 133 176 54 111 75 200 75 325 0 121 -19 201 -73 310 -94 191 -256
324 -456 375 -73 19 -239 26 -314 13z"/>
<path d="M14524 9245 c-168 -84 -161 -328 11 -406 128 -59 288 25 314 164 17
93 -18 176 -97 231 -35 25 -55 31 -110 34 -57 3 -75 -1 -118 -23z"/>
<path d="M12990 9109 c-55 -24 -124 -90 -153 -144 -32 -58 -32 -212 0 -271 31
-57 89 -113 148 -140 77 -37 182 -34 263 7 105 52 165 150 165 269 0 119 -60
217 -165 269 -52 27 -72 31 -137 31 -55 0 -89 -6 -121 -21z"/>
<path d="M1553 8055 c-144 -39 -288 -157 -352 -288 -107 -221 -57 -480 126
-647 110 -100 239 -145 393 -137 153 8 258 56 367 167 230 235 192 630 -79
820 -130 91 -308 124 -455 85z"/>
<path d="M12590 7711 c-175 -39 -280 -206 -235 -374 30 -115 110 -193 226
-223 140 -36 290 38 351 174 29 65 30 180 1 243 -59 131 -209 210 -343 180z"/>
<path d="M10611 7315 c-255 -72 -410 -332 -346 -580 35 -132 138 -260 255
-316 210 -101 461 -40 596 143 71 96 88 154 88 288 0 97 -3 124 -22 169 -54
130 -158 231 -285 280 -80 30 -209 37 -286 16z"/>
<path d="M14297 7364 c-101 -31 -176 -148 -164 -255 24 -198 253 -288 401
-158 145 128 95 359 -90 415 -58 17 -85 17 -147 -2z"/>
<path d="M12795 5594 c-208 -50 -379 -215 -445 -429 -28 -89 -30 -231 -5 -325
44 -169 171 -324 326 -398 105 -50 172 -66 275 -65 344 3 614 275 614 618 0
244 -138 457 -362 560 -40 18 -97 38 -126 44 -72 15 -204 13 -277 -5z"/>
<path d="M15581 5614 c-76 -20 -141 -58 -199 -115 -260 -259 -117 -697 247
-759 239 -40 480 141 509 384 39 319 -250 573 -557 490z"/>
<path d="M17987 5806 c-59 -22 -103 -61 -131 -118 -108 -216 134 -437 337
-308 192 122 117 419 -110 436 -35 3 -72 -1 -96 -10z"/>
<path d="M1093 5636 c-60 -19 -99 -51 -130 -104 -59 -99 -28 -231 67 -297 33
-23 56 -30 105 -33 82 -5 128 11 179 62 45 44 66 98 66 165 0 141 -152 251
-287 207z"/>
<path d="M9285 4806 c-367 -71 -625 -380 -625 -748 0 -168 47 -316 144 -451
335 -470 1060 -400 1306 124 175 374 15 829 -355 1009 -137 66 -329 93 -470
66z"/>
<path d="M6620 5081 c-229 -70 -257 -372 -45 -484 56 -29 164 -29 221 1 95 49
143 127 144 233 0 51 -6 77 -26 118 -52 104 -186 164 -294 132z"/>
<path d="M17555 4031 c-93 -27 -159 -65 -234 -136 -133 -126 -199 -315 -171
-487 54 -324 350 -535 663 -474 117 23 199 67 288 156 119 117 169 237 169
403 0 256 -174 478 -425 542 -78 20 -214 18 -290 -4z"/>
<path d="M5765 3069 c-247 -38 -471 -192 -591 -405 -172 -306 -126 -692 113
-945 164 -174 358 -259 588 -259 213 0 403 74 551 213 199 186 295 457 253
717 -33 211 -165 424 -332 539 -68 46 -200 106 -277 125 -84 20 -229 27 -305
15z"/>
<path d="M3397 2415 c-154 -57 -233 -225 -180 -381 24 -71 112 -157 183 -178
119 -35 216 -12 300 72 119 120 123 282 8 407 -78 86 -205 119 -311 80z"/>
<path d="M14430 2700 c-264 -70 -460 -258 -542 -520 -19 -63 -23 -96 -23 -210
0 -114 4 -147 23 -210 81 -257 277 -447 532 -517 89 -24 290 -24 380 0 257 71
466 279 536 537 25 90 26 291 1 380 -69 254 -258 450 -512 530 -103 33 -293
37 -395 10z"/>
<path d="M11762 3197 c-131 -48 -188 -207 -117 -323 44 -71 109 -108 188 -108
119 1 204 74 223 193 25 155 -145 292 -294 238z"/>
<path d="M12206 2005 c-80 -28 -136 -109 -136 -196 0 -217 292 -290 390 -99
57 110 20 227 -89 283 -60 30 -106 33 -165 12z"/>
<path d="M10510 1891 c-139 -46 -219 -159 -208 -295 19 -236 301 -342 471
-178 53 51 79 105 85 178 12 158 -104 291 -263 300 -33 2 -71 0 -85 -5z"/>
<path d="M8795 1747 c-98 -32 -171 -110 -201 -216 -42 -142 47 -309 189 -358
289 -98 526 236 338 475 -73 92 -215 135 -326 99z"/>
<path d="M16940 1601 c-121 -37 -204 -153 -205 -286 0 -117 58 -209 168 -267
60 -33 194 -33 254 0 111 58 168 150 167 267 0 51 -7 84 -24 123 -28 65 -102
134 -167 156 -48 17 -149 20 -193 7z"/>
<path d="M4339 11587 c-100 -42 -153 -95 -200 -202 -17 -38 -22 -69 -22 -125
1 -181 116 -318 295 -351 57 -10 76 -10 134 4 114 28 188 87 241 191 38 73 44
198 13 278 -28 76 -104 159 -177 195 -81 39 -204 44 -284 10z"/>
<path d="M4222 6630 c-173 -46 -306 -140 -402 -286 -131 -200 -145 -452 -37
-674 54 -111 176 -237 284 -293 343 -179 765 -40 928 305 49 104 65 176 65
293 0 193 -60 337 -200 476 -70 70 -103 95 -172 128 -148 72 -316 90 -466 51z"/>
<path d="M2780 4606 c-192 -54 -323 -240 -307 -436 27 -319 378 -493 645 -320
306 197 230 662 -123 756 -61 17 -155 16 -215 0z"/>
</g>
</svg>
